<?xml version="1.0" encoding="utf-8"?>
<!-- Generator: Adobe Illustrator 23.0.4, SVG Export Plug-In . SVG Version: 6.00 Build 0)  -->
<svg version="1.1" id="Layer_1" xmlns="http://www.w3.org/2000/svg" xmlns:xlink="http://www.w3.org/1999/xlink" x="0px" y="0px"
	 viewBox="0 0 400 400" style="enable-background:new 0 0 400 400;" xml:space="preserve">
<style type="text/css">
	.st0{fill:#79C257;}
</style>
<g id="androidlogocard_1_">
	<path class="st0" d="M313.9,169.8c0-10.4-9.6-18.6-20.3-16.4c-7.8,1.6-13.2,8.7-13.2,16.7v69.2c0,7.9,5.4,15,13.2,16.7
		c10.7,2.3,20.3-6,20.3-16.4V169.8z"/>
	<path class="st0" d="M119.5,169.8c0-10.4-9.6-18.6-20.3-16.4C91.4,155,86,162.1,86,170v69.2c0,7.9,5.4,15,13.2,16.7
		c10.7,2.3,20.3-6,20.3-16.4V169.8z"/>
	<g>
		<path class="st0" d="M236.4,90.4l11.8-21.2c0.7-1.1,0.2-2.6-0.9-3.2c-0.3-0.2-0.7-0.3-1.1-0.3c-0.8,0-1.6,0.4-2,1.2l-11.9,21.5
			c-9.7-4.3-20.7-6.8-32.2-6.8s-22.5,2.5-32.2,6.8l-11.8-21.5c-0.7-1.1-2-1.6-3.2-0.9s-1.6,2-0.9,3.2l11.8,21.2
			c-22.7,11.8-38,34.1-38,59.7h148.7C274.3,124.4,259,102.1,236.4,90.4z M165.6,123c-3.4,0-6.2-2.8-6.2-6.2c0-3.4,2.8-6.2,6.2-6.2
			s6.2,2.8,6.2,6.2C171.8,120.3,169.1,123,165.6,123z M234.3,123c-3.4,0-6.2-2.8-6.2-6.2c0-3.4,2.8-6.2,6.2-6.2s6.2,2.8,6.2,6.2
			C240.5,120.3,237.7,123,234.3,123z"/>
		<path class="st0" d="M125.2,155.8v107.8c0,9.9,8,18,18,18h12.3l0,36.4c0,7.9,5.4,15,13.2,16.7c10.7,2.3,20.3-6,20.3-16.3v-36.8
			H211V318c0,7.9,5.4,15,13.2,16.7c10.7,2.3,20.3-6,20.3-16.3v-36.8h11.4c9.9,0,18-8,18-18V155.8H125.2z"/>
	</g>
</g>
</svg>
