<svg xmlns="http://www.w3.org/2000/svg" viewBox="0 0 186.25 59"><defs><style>.cls-1{fill:#00869a;}.cls-2{fill:#193d68;}.cls-3{fill:#222831;}</style></defs><title>Asset 1</title><g id="Layer_2" data-name="Layer 2"><g id="Layer_1-2" data-name="Layer 1"><g id="New_Logo" data-name="New Logo"><path id="Path_3622" data-name="Path 3622" class="cls-1" d="M35.6,3.56,24.62.14a4.28,4.28,0,0,0-4.35,1.35L.68,27.31a3.85,3.85,0,0,0,0,4.38L20.27,57.5a4.28,4.28,0,0,0,4.35,1.35l10.73-3.34L15.76,29.7Z"/><path id="Path_3623" data-name="Path 3623" class="cls-2" d="M59,45.46V13.55A4,4,0,0,0,56.31,10L40.76,5.17,22.05,29.7,40.53,53.9,56.32,49A4,4,0,0,0,59,45.46Z"/><path id="Path_3624" data-name="Path 3624" class="cls-3" d="M81.85,22.14c0-3.13,2.25-5.23,7.64-5.23s7.63,2.1,7.63,5.23v9.09c0,3.13-2.25,5.23-7.63,5.23s-7.64-2.1-7.64-5.23Zm11.64.3c0-1.63-1.14-2.55-4-2.55s-4,.92-4,2.55v8.48c0,1.64,1.14,2.56,4,2.56s4-.91,4-2.56Z"/><path id="Path_3625" data-name="Path 3625" class="cls-3" d="M111.66,34.29a9.14,9.14,0,0,1-6.11,2.17c-3.51,0-5.38-2-5.38-4.85V18c0-.54.19-.77.69-.77h2.21c.5,0,.73.23.73.77V30.7c0,1.6.73,2.51,2.82,2.51a8,8,0,0,0,5-1.9V18c0-.54.19-.77.69-.77h2.25c.49,0,.68.23.68.77V35.33c0,.53-.19.72-.68.72h-2.06c-.54,0-.69-.19-.73-.72Z"/><path id="Path_3626" data-name="Path 3626" class="cls-3" d="M121.05,17.22c.52,0,.68.23.72.73l.07,1.22a9.68,9.68,0,0,1,6.34-2.26c3.55,0,5.39,2.07,5.39,4.89V35.29c0,.53-.19.76-.69.76h-2.21c-.5,0-.73-.23-.73-.76V22.68c0-1.56-.73-2.52-2.82-2.52a8.73,8.73,0,0,0-5.2,1.95V35.29c0,.53-.19.76-.68.76H119c-.53,0-.73-.23-.73-.76V17.94c0-.5.2-.72.73-.72Z"/><path id="Path_3627" data-name="Path 3627" class="cls-3" d="M145.38,17.24c.49,0,.72.19.72.69v1.58c0,.54-.24.77-.73.77h-3.93V30.75c0,1.6,1,2.52,3.85,2.52H146c.49,0,.72.23.72.76v1.61c0,.53-.23.72-.72.72h-1.26c-5.38,0-7-1.87-7-5.23V20.28h-2.1c-.53,0-.72-.23-.72-.77V18.17c0-.5.2-.68.72-.72l1.89-.21h.23l0-3.46c0-.53.23-.76.73-.76h2.25c.5,0,.69.23.69.76v3.46Z"/><path id="Path_3628" data-name="Path 3628" class="cls-3" d="M153,15.68c0,.71-.3,1.69-2.63,1.69s-2.65-1-2.65-1.69v-2c0-.71.31-1.7,2.65-1.7s2.63,1,2.63,1.7Zm-.72-2.11c0-.5-.35-1-1.91-1s-1.93.47-1.93,1v2.17c0,.5.36,1,1.93,1s1.91-.47,1.91-1ZM151.2,15l.4,1c0,.09,0,.16-.15.16H151c-.1,0-.11-.05-.15-.16l-.38-.89h-.57V16c0,.1,0,.16-.15.16h-.44c-.1,0-.14-.05-.14-.16V13.32c0-.12,0-.16.14-.16h1.19c1,0,1.16.46,1.16.88v.23a.76.76,0,0,1-.48.76m-1.28-1.32v.88h.52c.29,0,.49-.14.49-.35v-.17c0-.22-.19-.36-.49-.36Z"/><path id="Path_3629" data-name="Path 3629" class="cls-3" d="M80.5,35.29c.28.36.17.77-.36.77H77a1.44,1.44,0,0,1-1.16-.77l-6.93-9.7h-1v9.69c0,.53-.2.77-.76.77H64.67c-.51,0-.72-.25-.72-.77V12.88c0-.52.21-.76.72-.76h2.45c.56,0,.76.24.76.76v9.79h1l7.1-9.78a1.65,1.65,0,0,1,1.24-.76h2.65c.51,0,.64.36.35.76l-8,11Z"/></g><path d="M65.32,41.66H63.26V41.3H67.8v.36H65.74v5.57h-.42Z"/><path d="M68.92,45.08a2.17,2.17,0,0,1,2.16-2.28,1.83,1.83,0,0,1,1.94,2c0,.12,0,.23,0,.34H69.12V44.8h3.7l-.17.16c0-1.23-.63-1.81-1.56-1.81a1.79,1.79,0,0,0-1.76,1.91A1.82,1.82,0,0,0,71.22,47a2.44,2.44,0,0,0,1.45-.47l.17.3a2.77,2.77,0,0,1-1.64.51A2.17,2.17,0,0,1,68.92,45.08Z"/><path d="M74.41,45.08a2.21,2.21,0,0,1,2.36-2.28,2.14,2.14,0,0,1,1.55.66l-.23.28a1.9,1.9,0,0,0-3.26,1.34A1.82,1.82,0,0,0,76.77,47a2.12,2.12,0,0,0,1.46-.62l.2.28a2.42,2.42,0,0,1-1.68.69A2.17,2.17,0,0,1,74.41,45.08Z"/><path d="M80,40.76h.4v1.88l0,1.13h0a2.38,2.38,0,0,1,1.73-1c1.05,0,1.55.57,1.55,1.74v2.69h-.4V44.6c0-1-.36-1.44-1.22-1.44-.61,0-1,.32-1.65,1v3.09H80Z"/><path d="M85.38,42.91h.33l.05.83h0a2.37,2.37,0,0,1,1.71-.94c1,0,1.55.57,1.55,1.74v2.69h-.4V44.6c0-1-.36-1.44-1.22-1.44-.61,0-1,.32-1.65,1v3.09h-.4Z"/><path d="M92.87,43.26H90.7v-.35h2.57v4.32h-.4Zm-.32-1.83a.43.43,0,1,1,.42.43A.41.41,0,0,1,92.55,41.43Z"/><path d="M96,45.08a2.21,2.21,0,0,1,2.36-2.28,2.14,2.14,0,0,1,1.55.66l-.23.28a1.9,1.9,0,0,0-3.26,1.34A1.82,1.82,0,0,0,98.37,47a2.08,2.08,0,0,0,1.45-.62l.21.28a2.42,2.42,0,0,1-1.68.69A2.17,2.17,0,0,1,96,45.08Z"/><path d="M101.45,46.16c0-1,1-1.43,3.32-1.63,0-.72-.3-1.38-1.29-1.38a3,3,0,0,0-1.63.59l-.19-.29a3.52,3.52,0,0,1,1.87-.65,1.51,1.51,0,0,1,1.64,1.67v2.76h-.34l0-.64h0a3,3,0,0,1-1.8.75C102.19,47.34,101.45,47,101.45,46.16Zm3.32.06V44.83c-2.2.2-2.91.61-2.91,1.31s.58.86,1.17.86A2.8,2.8,0,0,0,104.77,46.22Z"/><path d="M108.46,45.93V41.11h-1.64v-.35h2V46c0,.68.33,1,1,1a2.11,2.11,0,0,0,.89-.22l.13.31a2.33,2.33,0,0,1-1.08.26C108.93,47.34,108.46,46.91,108.46,45.93Z"/><path d="M117.51,46.45l.27-.29a2.48,2.48,0,0,0,1.83.81c1,0,1.56-.49,1.56-1.19s-.53-1-1.15-1.24l-.9-.41c-.56-.23-1.29-.59-1.29-1.47a1.61,1.61,0,0,1,1.81-1.47,2.47,2.47,0,0,1,1.74.71l-.24.28a2.07,2.07,0,0,0-1.51-.61c-.83,0-1.39.42-1.39,1.06s.65.95,1.12,1.14l.89.41c.71.29,1.34.66,1.34,1.56s-.78,1.6-2,1.6A2.8,2.8,0,0,1,117.51,46.45Z"/><path d="M123.17,42.91h.34l0,.63h0a2.48,2.48,0,0,1,1.61-.74c1.22,0,1.83.87,1.83,2.21a2.1,2.1,0,0,1-2,2.33,2.35,2.35,0,0,1-1.43-.61h0l0,.88v1.58h-.4ZM126.6,45c0-1.06-.41-1.85-1.47-1.85a2.35,2.35,0,0,0-1.56.79v2.4A2.3,2.3,0,0,0,125,47C125.92,47,126.6,46.18,126.6,45Z"/><path d="M128.32,45.08a2.17,2.17,0,0,1,2.16-2.28,1.83,1.83,0,0,1,1.94,2,1.87,1.87,0,0,1,0,.34h-3.87V44.8h3.7l-.17.16c0-1.23-.64-1.81-1.56-1.81a1.79,1.79,0,0,0-1.76,1.91A1.82,1.82,0,0,0,130.62,47a2.44,2.44,0,0,0,1.45-.47l.17.3a2.8,2.8,0,0,1-1.64.51A2.17,2.17,0,0,1,128.32,45.08Z"/><path d="M133.81,45.08a2.21,2.21,0,0,1,2.36-2.28,2.14,2.14,0,0,1,1.55.66l-.23.28a1.87,1.87,0,0,0-1.32-.58,1.92,1.92,0,1,0,0,3.83,2.1,2.1,0,0,0,1.45-.62l.21.28a2.42,2.42,0,0,1-1.68.69A2.17,2.17,0,0,1,133.81,45.08Z"/><path d="M141.46,43.26H139.3v-.35h2.56v4.32h-.4Zm-.31-1.83a.41.41,0,0,1,.42-.43.41.41,0,0,1,.43.43.41.41,0,0,1-.43.43A.4.4,0,0,1,141.15,41.43Z"/><path d="M144.86,43l1.31,0h2.38v.35h-3.69Zm1.3-.56c0-1.09.53-1.74,1.62-1.74a2.67,2.67,0,0,1,1.21.27l-.13.31A2.1,2.1,0,0,0,147.8,41c-.91,0-1.25.55-1.25,1.36v4.87h-.39Z"/><path d="M152.26,43.26H150.1v-.35h2.56v4.32h-.4ZM152,41.43a.41.41,0,0,1,.42-.43.41.41,0,0,1,.43.43.41.41,0,0,1-.43.43A.4.4,0,0,1,152,41.43Z"/><path d="M155.41,45.08a2.21,2.21,0,0,1,2.36-2.28,2.14,2.14,0,0,1,1.55.66l-.23.28a1.87,1.87,0,0,0-1.32-.58,1.92,1.92,0,1,0,0,3.83,2.1,2.1,0,0,0,1.45-.62l.21.28a2.42,2.42,0,0,1-1.68.69A2.17,2.17,0,0,1,155.41,45.08Z"/><path d="M160.85,46.16c0-1,1-1.43,3.32-1.63,0-.72-.3-1.38-1.29-1.38a3,3,0,0,0-1.63.59l-.19-.29a3.48,3.48,0,0,1,1.87-.65,1.51,1.51,0,0,1,1.64,1.67v2.76h-.34l0-.64h0a3,3,0,0,1-1.8.75C161.58,47.34,160.85,47,160.85,46.16Zm3.32.06V44.83c-2.2.2-2.91.61-2.91,1.31s.58.86,1.17.86A2.8,2.8,0,0,0,164.17,46.22Z"/><path d="M167.45,45.62V43.26h-1.31V43l1.32,0,0-1.43h.34v1.43h2.3v.35h-2.3v2.39c0,.84.24,1.34,1.21,1.34a3,3,0,0,0,1.15-.22l.1.31a3.43,3.43,0,0,1-1.31.26C167.81,47.34,167.45,46.65,167.45,45.62Z"/><path d="M173.86,43.26H171.7v-.35h2.56v4.32h-.4Zm-.31-1.83A.41.41,0,0,1,174,41a.41.41,0,0,1,.43.43.41.41,0,0,1-.43.43A.4.4,0,0,1,173.55,41.43Z"/><path d="M176.83,45.08a2.1,2.1,0,1,1,2.1,2.26A2.09,2.09,0,0,1,176.83,45.08Zm3.77,0A1.69,1.69,0,1,0,178.93,47,1.73,1.73,0,0,0,180.6,45.08Z"/><path d="M182.57,42.91h.34l0,.83h0a2.37,2.37,0,0,1,1.71-.94c1.05,0,1.55.57,1.55,1.74v2.69h-.4V44.6c0-1-.36-1.44-1.22-1.44-.61,0-1,.32-1.66,1v3.09h-.4Z"/></g></g></svg>