<svg xmlns="http://www.w3.org/2000/svg" viewBox="0 0 224.3 51"><defs><style>.cls-1{fill:#00869a;}.cls-2{fill:#193d68;}.cls-3{fill:#222831;}</style></defs><title>Asset 2</title><g id="Layer_2" data-name="Layer 2"><g id="Layer_1-2" data-name="Layer 1"><g id="New_Logo" data-name="New Logo"><path id="Path_3622" data-name="Path 3622" class="cls-1" d="M30.77,3.08l-9.49-3a3.71,3.71,0,0,0-3.76,1.17L.59,23.61a3.31,3.31,0,0,0,0,3.78L17.52,49.7a3.67,3.67,0,0,0,3.76,1.17L30.56,48,13.62,25.67Z"/><path id="Path_3623" data-name="Path 3623" class="cls-2" d="M51,39.29V11.71a3.46,3.46,0,0,0-2.32-3.06L35.24,4.47,19.06,25.67,35,46.59l13.64-4.24A3.46,3.46,0,0,0,51,39.29Z"/><path id="Path_3624" data-name="Path 3624" class="cls-3" d="M74.85,23.14c0-3.13,2.25-5.23,7.64-5.23s7.63,2.1,7.63,5.23v9.09c0,3.13-2.25,5.23-7.63,5.23s-7.64-2.1-7.64-5.23Zm11.64.3c0-1.63-1.14-2.55-4-2.55s-4,.92-4,2.55v8.48c0,1.64,1.14,2.56,4,2.56s4-.91,4-2.56Z"/><path id="Path_3625" data-name="Path 3625" class="cls-3" d="M104.66,35.29a9.14,9.14,0,0,1-6.11,2.17c-3.51,0-5.38-2-5.38-4.85V19c0-.54.19-.77.69-.77h2.21c.5,0,.73.23.73.77V31.7c0,1.6.73,2.51,2.82,2.51a8,8,0,0,0,5-1.9V19c0-.54.19-.77.69-.77h2.25c.49,0,.68.23.68.77V36.33c0,.53-.19.72-.68.72h-2.06c-.54,0-.69-.19-.73-.72Z"/><path id="Path_3626" data-name="Path 3626" class="cls-3" d="M114.05,18.22c.52,0,.68.23.72.73l.07,1.22a9.68,9.68,0,0,1,6.34-2.26c3.55,0,5.39,2.07,5.39,4.89V36.29c0,.53-.19.76-.69.76h-2.21c-.5,0-.73-.23-.73-.76V23.68c0-1.56-.73-2.52-2.82-2.52a8.73,8.73,0,0,0-5.2,1.95V36.29c0,.53-.19.76-.68.76H112c-.53,0-.73-.23-.73-.76V18.94c0-.5.2-.72.73-.72Z"/><path id="Path_3627" data-name="Path 3627" class="cls-3" d="M138.38,18.24c.49,0,.72.19.72.69v1.58c0,.54-.24.77-.73.77h-3.93V31.75c0,1.6,1,2.52,3.85,2.52H139c.49,0,.72.23.72.76v1.61c0,.53-.23.72-.72.72h-1.26c-5.38,0-7-1.87-7-5.23V21.28h-2.1c-.53,0-.72-.23-.72-.77V19.17c0-.5.2-.68.72-.72l1.89-.21h.23l0-3.46c0-.53.23-.76.73-.76h2.25c.5,0,.69.23.69.76v3.46Z"/><path id="Path_3628" data-name="Path 3628" class="cls-3" d="M146,16.68c0,.71-.3,1.69-2.63,1.69s-2.65-1-2.65-1.69v-2c0-.71.31-1.7,2.65-1.7s2.63,1,2.63,1.7Zm-.72-2.11c0-.5-.35-1-1.91-1s-1.93.47-1.93,1v2.17c0,.5.36,1,1.93,1s1.91-.47,1.91-1ZM144.2,16l.4,1c0,.09,0,.16-.15.16H144c-.1,0-.11-.05-.15-.16l-.38-.89h-.57V17c0,.1,0,.16-.15.16h-.44c-.1,0-.14-.05-.14-.16V14.32c0-.12,0-.16.14-.16h1.19c1,0,1.16.46,1.16.88v.23a.76.76,0,0,1-.48.76m-1.28-1.32v.88h.52c.29,0,.49-.14.49-.35v-.17c0-.22-.19-.36-.49-.36Z"/><path id="Path_3629" data-name="Path 3629" class="cls-3" d="M73.5,36.29c.28.36.17.77-.36.77H70a1.44,1.44,0,0,1-1.16-.77l-6.93-9.7h-1v9.69c0,.53-.2.77-.76.77H57.67c-.51,0-.72-.25-.72-.77V13.88c0-.52.21-.76.72-.76h2.45c.56,0,.76.24.76.76v9.79h1l7.1-9.78a1.65,1.65,0,0,1,1.24-.76h2.65c.51,0,.64.36.35.76l-8,11Z"/></g><path class="cls-1" d="M151,15.49h5c6.67,0,9.84,4.22,9.84,10.8s-3.17,10.94-9.8,10.94H151Zm4.86,20.45c5.86,0,8.4-4,8.4-9.65s-2.54-9.51-8.4-9.51h-3.34V35.94Z"/><path class="cls-1" d="M169.85,29.34c0-5.3,3.53-8.35,7.68-8.35s7.68,3.05,7.68,8.35-3.53,8.29-7.68,8.29S169.85,34.59,169.85,29.34Zm13.83,0c0-4.17-2.58-7.06-6.15-7.06s-6.15,2.89-6.15,7.06,2.57,7,6.15,7S183.68,33.51,183.68,29.34Z"/><path class="cls-1" d="M190.31,29.34c0-5.3,3.9-8.35,8.63-8.35a7.8,7.8,0,0,1,5.7,2.42l-.85,1A6.87,6.87,0,0,0,199,22.28a6.76,6.76,0,0,0-7.13,7.06c0,4.17,2.84,7,7.11,7a7.72,7.72,0,0,0,5.33-2.28l.77,1a8.83,8.83,0,0,1-6.16,2.56C194,37.63,190.31,34.59,190.31,29.34Z"/><path class="cls-1" d="M209.93,35.12l.77-1.07a10.87,10.87,0,0,0,7.18,2.32c3.24,0,4.9-1.45,4.9-3.12,0-1.44-.56-2.58-5.59-3.6-4-.8-6.32-2.1-6.32-4.44S212.81,21,217.06,21a11.13,11.13,0,0,1,6.08,2l-.79,1a9,9,0,0,0-5.4-1.75c-3.45,0-4.56,1.4-4.56,2.88,0,1.68,1.62,2.51,5.21,3.26,5.48,1.15,6.7,2.42,6.7,4.78s-2.38,4.47-6.55,4.47A13.55,13.55,0,0,1,209.93,35.12Z"/></g></g></svg>