<?xml version="1.0" encoding="utf-8"?>
<!-- Generator: Adobe Illustrator 23.0.4, SVG Export Plug-In . SVG Version: 6.00 Build 0)  -->
<svg version="1.1" id="Layer_1" xmlns="http://www.w3.org/2000/svg" xmlns:xlink="http://www.w3.org/1999/xlink" x="0px" y="0px"
	 viewBox="0 0 400 400" style="enable-background:new 0 0 400 400;" xml:space="preserve">
<style type="text/css">
	.st0{fill-rule:evenodd;clip-rule:evenodd;fill:#ECEFF1;}
	.st1{fill-rule:evenodd;clip-rule:evenodd;fill:#FFC107;}
	.st2{fill-rule:evenodd;clip-rule:evenodd;fill:#FF5722;}
	.st3{fill-rule:evenodd;clip-rule:evenodd;fill:#F44336;}
	.st4{fill-rule:evenodd;clip-rule:evenodd;fill:#E91E63;}
	.st5{fill-rule:evenodd;clip-rule:evenodd;fill:#9C27B0;}
	.st6{fill-rule:evenodd;clip-rule:evenodd;fill:#3F51B5;}
	.st7{fill-rule:evenodd;clip-rule:evenodd;fill:#03A9F4;}
	.st8{fill-rule:evenodd;clip-rule:evenodd;fill:#009688;}
</style>
<g id="iossvglogo_1_">
	<g id="Layer_x0020_1_1_">
		<g id="surface1_1_">
			<path class="st0" d="M136,350H267c45.3,0,82-36.7,82-82V137c0-45.3-36.7-82-82-82H136c-45.3,0-82,36.7-82,82V268
				C54,313.3,90.7,350,136,350z"/>
			<path class="st1" d="M116.2,159.3c0,3.4-2.8,6.2-6.3,6.2c-3.4,0-6.3-2.8-6.3-6.2c0-3.4,2.8-6.3,6.3-6.3
				C113.3,153,116.2,155.9,116.2,159.3z"/>
			<path class="st2" d="M136.1,184.5l11.9-5c5.5-10,15-15.8,27.3-15.8c2.8,0,5.4,0.4,7.8,0.9l11.3-4.7c-5.5-2.8-11.9-4.3-19.1-4.3
				C155.7,155.6,141.7,166.3,136.1,184.5z"/>
			<polygon class="st2" points="113.8,194.1 113.8,181.2 105.6,181.2 105.6,197.7 			"/>
			<polygon class="st3" points="113.8,216.4 113.8,194 105.6,197.6 105.6,219.9 			"/>
			<path class="st3" d="M142.4,203.7c0-9.6,2-17.8,5.6-24.2l-11.9,5c-1.7,5.7-2.7,12.1-2.7,19.2c0,1.6,0.2,3.1,0.4,4.7l8.7-3.7
				C142.4,204.3,142.4,204,142.4,203.7z"/>
			<path class="st3" d="M254.5,157.4c-2.3,0.7-4.4,1.6-6.3,2.7L254.5,157.4z"/>
			<path class="st3" d="M194.4,159.9l-11.3,4.7c8.4,1.9,15,7.1,19.3,14.8l8.4-3.5C207,168.7,201.4,163.3,194.4,159.9z"/>
			<polygon class="st4" points="113.8,239.3 113.8,216.9 105.6,220.4 105.6,242.7 			"/>
			<path class="st4" d="M254.5,157.4l-6.3,2.7c-8.1,4.5-13,12-13,21.1c0,2.5,0.4,4.7,1,6.7l8.4-3.5c-0.3-1.1-0.5-2.2-0.5-3.5
				c0-10,9.1-17.3,22.4-17.3c6.5,0,12,1.8,16,4.8l8.6-3.7c-5.7-5.6-14.2-9.1-24.4-9.1C262.3,155.6,258.2,156.2,254.5,157.4z"/>
			<path class="st4" d="M142.4,204.7l-8.7,3.7c0.5,7.9,2.1,14.9,4.9,20.8l8.2-3.4C144.1,219.8,142.5,212.8,142.4,204.7z"/>
			<path class="st4" d="M210.8,175.8l-8.4,3.5c3.1,5.5,4.9,12.6,5.4,20.5l8.7-3.7C215.7,188.4,213.9,181.5,210.8,175.8z"/>
			<path class="st5" d="M215.1,219.7c1.2-5,1.9-10.3,1.9-16c0-2.6-0.3-5-0.5-7.4l-8.7,3.7c0.1,1.2,0.2,2.4,0.2,3.8
				c0,7.9-1.5,14.8-3.9,20.6L215.1,219.7z"/>
			<path class="st5" d="M146.9,225.7l-8.2,3.4c3.3,7.3,8.2,12.9,14.5,16.8l10.3-4.4C156.1,238.7,150.5,233.3,146.9,225.7z"/>
			<polygon class="st5" points="113.8,239.6 105.6,243.2 105.6,250 113.8,250 			"/>
			<path class="st5" d="M244.6,184.4l-8.4,3.5c2,7.1,7.5,12.1,17.4,15.5l13.2-5.5l-2.8-0.7C252,194.2,246.2,190.3,244.6,184.4z"/>
			<path class="st5" d="M289.7,180.4h8.8c-0.4-6-3.1-11.3-7.3-15.4l-8.6,3.7C286.4,171.5,289,175.5,289.7,180.4z"/>
			<path class="st6" d="M215.1,219.7l-10.9,4.6c-5.2,12.1-15.2,19.4-28.9,19.4c-4.4,0-8.2-0.8-11.8-2.2l-10.3,4.4
				c6.2,3.7,13.5,6,22.1,6C196.1,251.8,210.2,239.6,215.1,219.7z"/>
			<path class="st6" d="M241.4,225.4h-8.8c0.2,3,1.1,5.8,2.2,8.4l8.1-3.4C242.1,228.9,241.6,227.2,241.4,225.4z"/>
			<path class="st6" d="M273.1,199.5l-6.4-1.6l-13.1,5.5c1.9,0.6,4,1.3,6.3,1.8l10.6,2.7c5.8,1.5,10.3,3.3,13.6,5.5l9.9-4.2
				C289.6,205,282.8,201.9,273.1,199.5z"/>
			<path class="st7" d="M242.8,230.8l-8.1,3.4c3.1,7.1,9.3,12.5,17.7,15.3l13.9-5.8C255.1,243.5,246.2,238.4,242.8,230.8z"/>
			<path class="st7" d="M299.5,229.7c0.3-1.6,0.5-3.2,0.5-4.9c0-6.4-1.9-11.5-6.1-15.6l-9.9,4.2c4.7,3.1,7,7.2,7,12.3
				c0,3.2-1,6.1-2.8,8.7L299.5,229.7z"/>
			<path class="st8" d="M299.5,229.7l-11.3,4.8c-3.8,5.6-11.4,9.3-20.9,9.3c-0.3,0-0.6-0.1-0.9-0.1l-13.9,5.8
				c4.2,1.4,8.9,2.2,14,2.2C284.6,251.8,297,243.1,299.5,229.7z"/>
		</g>
	</g>
</g>
</svg>
