<?xml version="1.0" encoding="UTF-8"?>
<!DOCTYPE svg PUBLIC "-//W3C//DTD SVG 1.1//EN" "http://www.w3.org/Graphics/SVG/1.1/DTD/svg11.dtd">
<svg xmlns="http://www.w3.org/2000/svg" xml:space="preserve" width="5in" height="5in" version="1.1" style="shape-rendering:geometricPrecision; text-rendering:geometricPrecision; image-rendering:optimizeQuality; fill-rule:evenodd; clip-rule:evenodd"
viewBox="0 0 5000 5000"
 xmlns:xlink="http://www.w3.org/1999/xlink">
 <defs>
  <style type="text/css">
   <![CDATA[
    .fil8 {fill:#009688}
    .fil7 {fill:#03A9F4}
    .fil6 {fill:#3F51B5}
    .fil5 {fill:#9C27B0}
    .fil4 {fill:#E91E63}
    .fil0 {fill:#ECEFF1}
    .fil3 {fill:#F44336}
    .fil2 {fill:#FF5722}
    .fil1 {fill:#FFC107}
   ]]>
  </style>
 </defs>
 <g id="Layer_x0020_1">
  <g id="surface1">
   <path class="fil0" d="M1389 5000l2222 0c767,0 1389,-622 1389,-1389l0 -2222c0,-767 -622,-1389 -1389,-1389l-2222 0c-767,0 -1389,622 -1389,1389l0 2222c0,767 622,1389 1389,1389z"/>
   <path class="fil1" d="M1048 1769c0,58 -48,105 -106,105 -58,0 -106,-47 -106,-105 0,-58 48,-106 106,-106 58,0 106,48 106,106z"/>
   <path class="fil2" d="M1386 2196l201 -85c94,-169 255,-267 463,-267 47,0 91,6 133,15l191 -80c-94,-47 -202,-73 -324,-73 -332,0 -569,182 -664,490z"/>
   <polygon class="fil2" points="1013,2353 1013,2135 871,2135 871,2414 "/>
   <polygon class="fil3" points="1013,2741 1013,2353 871,2414 871,2801 "/>
   <path class="fil3" d="M1492 2521c0,-163 34,-301 95,-410l-201 85c-29,97 -46,205 -46,325 0,27 4,53 6,79l147 -62c0,-6 -1,-11 -1,-17z"/>
   <path class="fil3" d="M3392 1736c-39,12 -75,27 -107,46l107 -46z"/>
   <path class="fil3" d="M2374 1779l-191 80c143,33 254,120 327,250l142 -60c-65,-121 -160,-212 -278,-270z"/>
   <polygon class="fil4" points="1013,3128 1013,2741 871,2801 871,3188 "/>
   <path class="fil4" d="M3392 1736l-107 46c-137,76 -220,203 -220,358 0,42 7,79 17,114l143 -60c-5,-18 -8,-37 -8,-59 0,-170 155,-294 380,-294 110,0 203,30 272,81l145 -62c-96,-95 -241,-154 -413,-154 -76,0 -146,11 -209,30z"/>
   <path class="fil4" d="M1493 2538l-147 62c8,134 36,252 83,352l139 -58c-47,-99 -73,-219 -75,-356z"/>
   <path class="fil4" d="M2652 2049l-142 60c52,94 83,213 91,348l148 -62c-14,-132 -45,-249 -97,-346z"/>
   <path class="fil5" d="M2724 2793c20,-84 33,-174 33,-272 0,-44 -5,-85 -8,-126l-148 62c1,21 4,41 4,64 0,134 -25,251 -66,350l185 -78z"/>
   <path class="fil5" d="M1568 2894l-139 58c56,123 139,218 246,284l175 -74c-125,-47 -221,-139 -282,-268z"/>
   <polygon class="fil5" points="1013,3128 871,3188 871,3304 1013,3304 "/>
   <path class="fil5" d="M3225 2194l-143 60c34,121 127,205 295,263l223 -94 -48 -12c-202,-50 -301,-116 -327,-217z"/>
   <path class="fil5" d="M3989 2121l149 0c-7,-101 -52,-191 -124,-261l-145 62c65,49 108,117 120,199z"/>
   <path class="fil6" d="M2724 2793l-185 78c-88,205 -258,328 -489,328 -74,0 -139,-14 -200,-37l-175 74c105,63 229,101 375,101 353,0 592,-207 674,-544z"/>
   <path class="fil6" d="M3171 2897l-150 0c4,51 18,98 37,142l137 -58c-12,-26 -21,-54 -24,-84z"/>
   <path class="fil6" d="M3708 2450l-109 -27 -222 94c33,11 68,22 106,31l179 45c99,25 175,56 231,94l167 -71c-73,-72 -188,-125 -352,-166z"/>
   <path class="fil7" d="M3195 2981l-137 58c52,121 158,212 300,260l235 -99c-191,-4 -341,-90 -398,-219z"/>
   <path class="fil7" d="M4155 2963c5,-27 8,-54 8,-83 0,-109 -32,-195 -103,-264l-167 71c80,53 118,122 118,209 0,55 -17,104 -48,148l192 -81z"/>
   <path class="fil8" d="M4155 2963l-192 81c-65,95 -193,157 -354,157 -5,0 -10,-1 -16,-1l-235 99c72,24 151,38 238,38 306,0 517,-147 559,-374z"/>
  </g>
 </g>
</svg>
