<svg id="a80b827c-b8c0-47ab-84ce-d2a47a152c7c" xmlns="http://www.w3.org/2000/svg" viewBox="0 0 860 653"><defs><style>.cls-1{fill:#e6e6e6;}.cls-2{fill:#008699;}.cls-3{fill:#ffb8b8;}.cls-4{opacity:0.1;isolation:isolate;}.cls-5{fill:#2f2e41;}.cls-6{fill:#d0cde1;}.cls-7{fill:#3f3d56;}.cls-8{fill:#f2f2f2;}.cls-9{fill:#fff;}.cls-10{fill:#00869a;}.cls-10,.cls-11{opacity:0.86;}.cls-11,.cls-12{fill:#193d68;}.cls-12{opacity:0.7;font-size:75px;font-family:MyriadPro-Regular, Myriad Pro;}</style></defs><title>kountdocsheroimagebranded</title><path class="cls-1" d="M218.48,65.74C225,74.37,231.94,84.25,238.84,95l1-49.67.54.34a97.29,97.29,0,0,0-24-12.82l.54.31Z" transform="translate(0 0)"/><path class="cls-1" d="M215.83,32.68c-8.88-3-17.49-4-25.36-2.62-.41.07-.82.15-1.22.24,2,2.14,13.66,14.82,28.09,33.92Z" transform="translate(0 0)"/><path class="cls-1" d="M267.78,149.32q1.59,3.8,3,7.55L289,103.07l.52.5q-3.23-6.07-6.84-11.8L268,149.54Z" transform="translate(0 0)"/><path class="cls-1" d="M257.14,126.63l9.52-56.4.54.43A151.86,151.86,0,0,0,240.91,46.1l-1,50.62Q249.54,111.9,257.14,126.63Z" transform="translate(0 0)"/><path class="cls-1" d="M160.38,86.72l-.22-.69a127,127,0,0,0,5,25.16l87.55,9c-4.57-8.43-9.29-16.34-13.87-23.55Z" transform="translate(0 0)"/><path class="cls-1" d="M165.62,112.56l-.23-.69q1.34,4.34,3,8.76l-.23-.68,88.61,7.87c-1.07-2.09-2.15-4.16-3.25-6.19Z" transform="translate(0 0)"/><path class="cls-1" d="M267.15,147.85l14.56-57.29.54.47a183.62,183.62,0,0,0-14.53-19.77l-9.65,57.17Q263.08,138.29,267.15,147.85Z" transform="translate(0 0)"/><path class="cls-1" d="M270.86,159.75l-86.23-8.31a175.53,175.53,0,0,0,15.28,17.95l-.21-.77,78.82,16.22A219.31,219.31,0,0,0,270.86,159.75Z" transform="translate(0 0)"/><path class="cls-1" d="M188.54,30.84l.2-.43c-11.85,2.69-20.22,10.75-24.83,22.43l52.75,11.92C201,44.09,188.72,31,188.54,30.84Z" transform="translate(0 0)"/><path class="cls-1" d="M272.41,161.14a218.67,218.67,0,0,1,6.89,22.64l20.54-51.5.5.5A86.4,86.4,0,0,0,293.78,112c-1.21-2.59-2.48-5.15-3.8-7.66l-18.44,54.44C271.83,159.59,272.13,160.37,272.41,161.14Z" transform="translate(0 0)"/><path class="cls-1" d="M238,95.24c-6.82-10.65-13.72-20.41-20.12-28.94l-54-12.19-.18-.69c-3.37,8.88-4.6,19.77-3.58,32Z" transform="translate(0 0)"/><path class="cls-1" d="M183.58,150l86.72,8.35,0-.05a293.17,293.17,0,0,0-12.86-29.08l-88.83-7.9q2.26,6,5.11,12.11A105.6,105.6,0,0,0,183.58,150Z" transform="translate(0 0)"/><path class="cls-1" d="M393.17,166.83l.2.62a97.14,97.14,0,0,0-10.29-25.18l.22.58-19.56,26.08c-.52,10.78-1.45,22.84-3,35.53Z" transform="translate(0 0)"/><path class="cls-1" d="M382.78,141.78c-4.91-8-10.9-14.26-17.86-18.2l-1.09-.59c.17,2.93,1.06,20.13,0,44.05Z" transform="translate(0 0)"/><path class="cls-1" d="M348.39,264.74c-.79,2.63-1.62,5.22-2.48,7.75l48.35-29.81.08.72q1.4-6.74,2.26-13.46l-48.15,35.13Z" transform="translate(0 0)"/><path class="cls-1" d="M354.67,240.48,398,203.12l.14.67a152.26,152.26,0,0,0-4.58-35.68l-33.06,38.35Q358.2,224.28,354.67,240.48Z" transform="translate(0 0)"/><path class="cls-1" d="M398.13,204.58l-43.89,37.88q-2.43,10.78-5.39,20.75l47.75-34.83.11.7A180.71,180.71,0,0,0,398.13,204.58Z" transform="translate(0 0)"/><path class="cls-1" d="M313.41,332.48c0-.59.08-1.19.12-1.82A151.65,151.65,0,0,0,333.4,300.2l-26.51-33c-.35-1.12-.72-2.25-1.1-3.37L334,299a218,218,0,0,0,10.1-24.21L288.3,218.68c.18-.44.36-.89.53-1.35l55.74,56,.05,0a295.27,295.27,0,0,0,8.64-30.61L297.91,187.9c.12-.51.23-1,.35-1.54l55.35,54.79q.76-3.43,1.45-6.84l-55.19-56.2c.1-.53.18-1.07.27-1.61l55.23,56.24c1.86-9.41,3.27-18.51,4.34-27L305.6,148l.27-.67c-1.28,1.86-2.53,3.82-3.74,5.85a111.78,111.78,0,0,0-1.56-19.15l-20.73,52a166.92,166.92,0,0,1,3.59,21.77c-.12,1.24-.24,2.48-.33,3.74l.69.69c0,.66.08,1.33.11,2l-.9-.91c-.05.73-.08,1.47-.11,2.2a158,158,0,0,0-4.05-29.35L200.6,170.1c3.94,4,8.07,8,12.29,11.77a95.29,95.29,0,0,0-25.28-4.32l.61.11,11.55,30.49c8.83,6.21,18.52,13.45,28.41,21.56L214,182.82l1.58,1.4L229.72,231q13.85,11.46,25.64,23.12l-6.52-44,1.36.94,6.59,44.5q7.81,7.82,14.65,15.66l-3.16-48.26,1.32.83,3.19,48.76-.3-.13c1.79,2.08,3.53,4.17,5.21,6.25l.61-49.62,1.31.76L279,280.27l1.54,1.94a220.19,220.19,0,0,1,13.56,19.4l.29-4.51c.36,1.34.73,2.65,1.09,3.95l-.17,2.56c.61,1,1.2,2,1.78,3,.45,1.54.9,3,1.34,4.48q-1.92-3.57-4-7.07L215,312.93c41.75,21.95,93.55,32.36,96.85,33-.78-3.46-1.74-6.89-2.83-10.29l.85-.9.4,1.21-.44.48.51-.24c.77,2.39,1.45,4.77,2.06,7.14.24-1.92.56-4.86.84-8.56,14.3-7.16,51.33-28.08,70.13-60.87l-49.13,26.82A152.65,152.65,0,0,1,313.41,332.48ZM297.14,255l.12-1.86,1.24,1.55-.12,1.87Z" transform="translate(0 0)"/><path class="cls-1" d="M362.93,123l.44-.2c-10.85-5.49-22.44-4.62-33.43,1.44L363,167C364.11,141.13,363,123.21,362.93,123Z" transform="translate(0 0)"/><path class="cls-1" d="M344.42,276.8a219.53,219.53,0,0,1-9.13,21.83L384,272.07l.07.7a85.91,85.91,0,0,0,8.18-20.16c.72-2.77,1.38-5.55,2-8.33l-48.92,30.17C345,275.24,344.7,276,344.42,276.8Z" transform="translate(0 0)"/><path class="cls-1" d="M362.87,168.94l-33.78-43.81.29-.64c-8.25,4.69-16.15,12.29-23.13,22.32l53.67,57.26C361.45,191.52,362.36,179.59,362.87,168.94Z" transform="translate(0 0)"/><path class="cls-1" d="M187,177.53c-9.38-.13-17.88,1.57-24.94,5.34l-1.08.61c2.57,1.42,17.58,9.87,37.21,23.58Z" transform="translate(0 0)"/><path class="cls-1" d="M228.72,231.27,151,246.06l-.43-.58a127.29,127.29,0,0,0,12.56,22.37l86.06-18.48C242.24,242.77,235.3,236.71,228.72,231.27Z" transform="translate(0 0)"/><path class="cls-1" d="M255.35,255.37q-2.49-2.49-5-4.89L164,269l-.43-.58q2.6,3.71,5.54,7.41l-.44-.58Z" transform="translate(0 0)"/><path class="cls-1" d="M293.68,302.86a218.9,218.9,0,0,0-15-21.49l-84.58,18.75a175,175,0,0,0,20.09,12.34l-.44-.66Z" transform="translate(0 0)"/><path class="cls-1" d="M160.51,184.22l.06-.48c-10.45,6.22-15.91,16.48-16.68,29l53.85-5C176.49,193,160.73,184.34,160.51,184.22Z" transform="translate(0 0)"/><path class="cls-1" d="M199.32,208.89,144.23,214l-.38-.59c-.47,9.48,1.73,20.22,6.46,31.48l77.09-14.67C217.63,222.17,208,215,199.32,208.89Z" transform="translate(0 0)"/><path class="cls-1" d="M277.68,280.17a292.3,292.3,0,0,0-21.22-23.69l-86.92,19.95q4,5,8.61,9.93a104.77,104.77,0,0,0,14.47,12.72l85.06-18.86Z" transform="translate(0 0)"/><path class="cls-2" d="M218.48,65.74C225,74.37,231.94,84.25,238.84,95l1-49.67.54.34a97.29,97.29,0,0,0-24-12.82l.54.31Z" transform="translate(0 0)"/><path class="cls-2" d="M215.83,32.68c-8.88-3-17.49-4-25.36-2.62-.41.07-.82.15-1.22.24,2,2.14,13.66,14.82,28.09,33.92Z" transform="translate(0 0)"/><path class="cls-2" d="M267.78,149.32q1.59,3.8,3,7.55L289,103.07l.52.5q-3.23-6.07-6.84-11.8L268,149.54Z" transform="translate(0 0)"/><path class="cls-2" d="M257.14,126.63l9.52-56.4.54.43A151.86,151.86,0,0,0,240.91,46.1l-1,50.62Q249.54,111.9,257.14,126.63Z" transform="translate(0 0)"/><path class="cls-2" d="M160.38,86.72l-.22-.69a127,127,0,0,0,5,25.16l87.55,9c-4.57-8.43-9.29-16.34-13.87-23.55Z" transform="translate(0 0)"/><path class="cls-2" d="M165.62,112.56l-.23-.69q1.34,4.34,3,8.76l-.23-.68,88.61,7.87c-1.07-2.09-2.15-4.16-3.25-6.19Z" transform="translate(0 0)"/><path class="cls-2" d="M267.15,147.85l14.56-57.29.54.47a183.62,183.62,0,0,0-14.53-19.77l-9.65,57.17Q263.08,138.29,267.15,147.85Z" transform="translate(0 0)"/><path class="cls-2" d="M270.86,159.75l-86.23-8.31a175.53,175.53,0,0,0,15.28,17.95l-.21-.77,78.82,16.22A219.31,219.31,0,0,0,270.86,159.75Z" transform="translate(0 0)"/><path class="cls-2" d="M188.54,30.84l.2-.43c-11.85,2.69-20.22,10.75-24.83,22.43l52.75,11.92C201,44.09,188.72,31,188.54,30.84Z" transform="translate(0 0)"/><path class="cls-2" d="M272.41,161.14a218.67,218.67,0,0,1,6.89,22.64l20.54-51.5.5.5A86.4,86.4,0,0,0,293.78,112c-1.21-2.59-2.48-5.15-3.8-7.66l-18.44,54.44C271.83,159.59,272.13,160.37,272.41,161.14Z" transform="translate(0 0)"/><path class="cls-2" d="M238,95.24c-6.82-10.65-13.72-20.41-20.12-28.94l-54-12.19-.18-.69c-3.37,8.88-4.6,19.77-3.58,32Z" transform="translate(0 0)"/><path class="cls-2" d="M183.58,150l86.72,8.35,0-.05a293.17,293.17,0,0,0-12.86-29.08l-88.83-7.9q2.26,6,5.11,12.11A105.6,105.6,0,0,0,183.58,150Z" transform="translate(0 0)"/><path class="cls-2" d="M393.17,166.83l.2.62a97.14,97.14,0,0,0-10.29-25.18l.22.58-19.56,26.08c-.52,10.78-1.45,22.84-3,35.53Z" transform="translate(0 0)"/><path class="cls-2" d="M382.78,141.78c-4.91-8-10.9-14.26-17.86-18.2l-1.09-.59c.17,2.93,1.06,20.13,0,44.05Z" transform="translate(0 0)"/><path class="cls-2" d="M348.39,264.74c-.79,2.63-1.62,5.22-2.48,7.75l48.35-29.81.08.72q1.4-6.74,2.26-13.46l-48.15,35.13Z" transform="translate(0 0)"/><path class="cls-2" d="M354.67,240.48,398,203.12l.14.67a152.26,152.26,0,0,0-4.58-35.68l-33.06,38.35Q358.2,224.28,354.67,240.48Z" transform="translate(0 0)"/><path class="cls-2" d="M398.13,204.58l-43.89,37.88q-2.43,10.78-5.39,20.75l47.75-34.83.11.7A180.71,180.71,0,0,0,398.13,204.58Z" transform="translate(0 0)"/><path class="cls-2" d="M313.41,332.48c0-.59.08-1.19.12-1.82A151.65,151.65,0,0,0,333.4,300.2l-26.51-33c-.35-1.12-.72-2.25-1.1-3.37L334,299a218,218,0,0,0,10.1-24.21L288.3,218.68c.18-.44.36-.89.53-1.35l55.74,56,.05,0a295.27,295.27,0,0,0,8.64-30.61L297.91,187.9c.12-.51.23-1,.35-1.54l55.35,54.79q.76-3.43,1.45-6.84l-55.19-56.2c.1-.53.18-1.07.27-1.61l55.23,56.24c1.86-9.41,3.27-18.51,4.34-27L305.6,148l.27-.67c-1.28,1.86-2.53,3.82-3.74,5.85a111.78,111.78,0,0,0-1.56-19.15l-20.73,52a166.92,166.92,0,0,1,3.59,21.77c-.12,1.24-.24,2.48-.33,3.74l.69.69c0,.66.08,1.33.11,2l-.9-.91c-.05.73-.08,1.47-.11,2.2a158,158,0,0,0-4.05-29.35L200.6,170.1c3.94,4,8.07,8,12.29,11.77a95.29,95.29,0,0,0-25.28-4.32l.61.11,11.55,30.49c8.83,6.21,18.52,13.45,28.41,21.56L214,182.82l1.58,1.4L229.72,231q13.85,11.46,25.64,23.12l-6.52-44,1.36.94,6.59,44.5q7.81,7.82,14.65,15.66l-3.16-48.26,1.32.83,3.19,48.76-.3-.13c1.79,2.08,3.53,4.17,5.21,6.25l.61-49.62,1.31.76L279,280.27l1.54,1.94a220.19,220.19,0,0,1,13.56,19.4l.29-4.51c.36,1.34.73,2.65,1.09,3.95l-.17,2.56c.61,1,1.2,2,1.78,3,.45,1.54.9,3,1.34,4.48q-1.92-3.57-4-7.07L215,312.93c41.75,21.95,93.55,32.36,96.85,33-.78-3.46-1.74-6.89-2.83-10.29l.85-.9.4,1.21-.44.48.51-.24c.77,2.39,1.45,4.77,2.06,7.14.24-1.92.56-4.86.84-8.56,14.3-7.16,51.33-28.08,70.13-60.87l-49.13,26.82A152.65,152.65,0,0,1,313.41,332.48ZM297.14,255l.12-1.86,1.24,1.55-.12,1.87Z" transform="translate(0 0)"/><path class="cls-2" d="M362.93,123l.44-.2c-10.85-5.49-22.44-4.62-33.43,1.44L363,167C364.11,141.13,363,123.21,362.93,123Z" transform="translate(0 0)"/><path class="cls-2" d="M344.42,276.8a219.53,219.53,0,0,1-9.13,21.83L384,272.07l.07.7a85.91,85.91,0,0,0,8.18-20.16c.72-2.77,1.38-5.55,2-8.33l-48.92,30.17C345,275.24,344.7,276,344.42,276.8Z" transform="translate(0 0)"/><path class="cls-2" d="M362.87,168.94l-33.78-43.81.29-.64c-8.25,4.69-16.15,12.29-23.13,22.32l53.67,57.26C361.45,191.52,362.36,179.59,362.87,168.94Z" transform="translate(0 0)"/><path class="cls-2" d="M187,177.53c-9.38-.13-17.88,1.57-24.94,5.34l-1.08.61c2.57,1.42,17.58,9.87,37.21,23.58Z" transform="translate(0 0)"/><path class="cls-2" d="M228.72,231.27,151,246.06l-.43-.58a127.29,127.29,0,0,0,12.56,22.37l86.06-18.48C242.24,242.77,235.3,236.71,228.72,231.27Z" transform="translate(0 0)"/><path class="cls-2" d="M255.35,255.37q-2.49-2.49-5-4.89L164,269l-.43-.58q2.6,3.71,5.54,7.41l-.44-.58Z" transform="translate(0 0)"/><path class="cls-2" d="M293.68,302.86a218.9,218.9,0,0,0-15-21.49l-84.58,18.75a175,175,0,0,0,20.09,12.34l-.44-.66Z" transform="translate(0 0)"/><path class="cls-2" d="M160.51,184.22l.06-.48c-10.45,6.22-15.91,16.48-16.68,29l53.85-5C176.49,193,160.73,184.34,160.51,184.22Z" transform="translate(0 0)"/><path class="cls-2" d="M199.32,208.89,144.23,214l-.38-.59c-.47,9.48,1.73,20.22,6.46,31.48l77.09-14.67C217.63,222.17,208,215,199.32,208.89Z" transform="translate(0 0)"/><path class="cls-2" d="M277.68,280.17a292.3,292.3,0,0,0-21.22-23.69l-86.92,19.95q4,5,8.61,9.93a104.77,104.77,0,0,0,14.47,12.72l85.06-18.86Z" transform="translate(0 0)"/><path class="cls-3" d="M780.74,53.93S768,90.2,775.84,95.78s-26.46,51.14-26.46,51.14l-41.17-11.15,22.55-38.13s2.94-38.13,2.94-43.71S780.74,53.93,780.74,53.93Z" transform="translate(0 0)"/><path class="cls-4" d="M780.74,53.93S768,90.2,775.84,95.78s-26.46,51.14-26.46,51.14l-41.17-11.15,22.55-38.13s2.94-38.13,2.94-43.71S780.74,53.93,780.74,53.93Z" transform="translate(0 0)"/><path class="cls-5" d="M802.13,312.45s3.72,46.49,0,70.67-9.3,91.13-9.3,91.13,0,126.47-20.45,128.33-35.34,3.72-37.2-3.72,9.3-11.16,3.72-14.88-7.44-16.74,0-31.62,0-165.52,0-165.52l-35.34,94.85s-3.72,78.11-7.44,89.27,3.72,31.62-9.3,33.48-27.89-9.3-35.33-13,11.16-3.72,7.44-5.58-14.88-7.44-11.16-9.3,7.44-91.13,7.44-91.13,10.23-190.63,23.25-198.07,21.38,5.37,21.38,5.37Z" transform="translate(0 0)"/><path class="cls-5" d="M768.66,596.14V611s16.73,40.44,0,40.44-29.76,4.19-29.76-1.39V599.86Z" transform="translate(0 0)"/><path class="cls-5" d="M658.93,595.11V610s-16.74,40.44,0,40.44,29.75,4.2,29.75-1.38V598.83Z" transform="translate(0 0)"/><circle class="cls-3" cx="754.71" cy="47.43" r="33.48"/><path class="cls-6" d="M764.94,109.73s-9.3,27.9-24.18,22.32l-14.88-5.58L699.84,305s20.46,29.76,50.22,11.16S764.94,109.73,764.94,109.73Z" transform="translate(0 0)"/><path class="cls-6" d="M738.9,104.15l-8.37-17.67s-49.28,23.25-56.72,30.69-7.44,18.6-7.44,18.6l13,46.49s-3.72,102.29-3.72,106-13,24.18-3.72,16.74,11.16-14.88,18.59-3.72,24.18,24.18,24.18,24.18Z" transform="translate(0 0)"/><path class="cls-3" d="M673.81,238.06l5.58,52.07s33.47,29.76,26,31.62-11.16-5.58-11.16-5.58-13,13-20.45,5.58-26-78.12-26-78.12Z" transform="translate(0 0)"/><path class="cls-5" d="M754,.11c7.43-.26,15.37-.39,21.63,3.61A31.61,31.61,0,0,1,783.09,11c6.09,7.7,11.36,17.4,9.09,27l-2.63-1a17.3,17.3,0,0,0,1.66,7.38c-.37-1.08-1.61.66-1.27,1.75l2.89,9.5c-4.76-1.74-10.68,1.79-11.41,6.81-.33-11-1.47-23.69-10.42-30.15C766.48,29,760.77,28,755.27,27.11c-5.07-.82-10.39-1.59-15.25.08s-9,6.63-7.89,11.65c-2.24-.77-4.74.79-5.85,2.89s-1.17,4.56-1.2,6.93C722.69,50.35,720,47,719,44.24c-2.28-6.47-4.31-13.36-3.08-20.11s6.73-13.21,13.59-13.23a4.81,4.81,0,0,1-1.24-3.35l5.66-.48a6.26,6.26,0,0,1-3.73-2C732.47,7.6,750.32.24,754,.11Z" transform="translate(0 0)"/><path class="cls-6" d="M755.64,98.57s15.14-14.84,20.59-13.93,12.88,13.93,12.88,13.93,44.64,14.88,42.78,29.76-22.32,87.41-22.32,87.41-16.74,87.41-1.86,96.71S737,345.92,735.18,334.77s-5.58-122.75,0-139.49S755.64,98.57,755.64,98.57Z" transform="translate(0 0)"/><path class="cls-6" d="M690.54,128.33h-23S651.49,199,649.63,206.44s-5.58,42.77-3.72,42.77S685,241.77,685,247.35Z" transform="translate(0 0)"/><circle class="cls-7" cx="27.38" cy="149.76" r="17.97"/><circle class="cls-2" cx="27.38" cy="219.07" r="17.97"/><circle class="cls-7" cx="27.38" cy="288.39" r="17.97" transform="translate(-5.76 0.6) rotate(-1.15)"/><circle class="cls-7" cx="27.38" cy="357.7" r="17.97" transform="translate(-7.14 0.62) rotate(-1.15)"/><circle class="cls-7" cx="27.38" cy="427.01" r="17.97" transform="translate(-8.53 0.63) rotate(-1.15)"/><rect class="cls-7" x="25" y="651" width="835" height="2"/><polygon class="cls-2" points="26.15 156.96 17.6 145.56 19.62 144.04 26.59 153.33 54.02 130.89 55.62 132.85 26.15 156.96"/><polygon class="cls-7" points="137.77 215.65 75.3 216.51 137.77 241.96 137.77 652.05 759 652.05 759 215.65 137.77 215.65"/><rect class="cls-7" y="166.88" width="55.62" height="1.71"/><rect class="cls-7" y="236.19" width="55.62" height="1.71"/><rect class="cls-7" y="305.5" width="55.62" height="1.71"/><rect class="cls-7" y="374.81" width="55.62" height="1.71"/><rect class="cls-7" y="444.12" width="55.62" height="1.71"/><circle class="cls-8" cx="27.38" cy="219.07" r="8.56"/><rect class="cls-9" x="253.29" y="238.75" width="390.2" height="32.52"/><rect class="cls-2" x="614.39" y="585.31" width="115.52" height="39.36"/><rect class="cls-9" x="166.86" y="320.05" width="290.08" height="236.17"/><rect class="cls-9" x="521.97" y="340.58" width="208.79" height="5.99"/><rect class="cls-9" x="521.97" y="359.41" width="208.79" height="5.99"/><rect class="cls-9" x="521.97" y="378.23" width="208.79" height="5.99"/><rect class="cls-9" x="521.97" y="397.06" width="208.79" height="5.99"/><rect class="cls-9" x="521.97" y="415.88" width="208.79" height="5.99"/><rect class="cls-9" x="521.97" y="434.71" width="208.79" height="5.99"/><rect class="cls-9" x="521.97" y="453.53" width="208.79" height="5.99"/><rect class="cls-9" x="521.97" y="472.36" width="208.79" height="5.99"/><rect class="cls-9" x="521.97" y="491.18" width="208.79" height="5.99"/><rect class="cls-9" x="521.97" y="510.01" width="208.79" height="5.99"/><rect class="cls-9" x="521.97" y="528.83" width="208.79" height="5.99"/><rect class="cls-9" x="521.97" y="547.66" width="208.79" height="5.99"/><path class="cls-3" d="M815.15,254.79l-26,11.16s-50.21,7.44-50.21-13,50.21-9.3,50.21-9.3l16.74-5.35Z" transform="translate(0 0)"/><path class="cls-6" d="M809.57,117.17l22.32,5.58,16.74,98.57s5.58,26-3.72,27.89S809.57,266,809.57,266s-3.72-27.89-11.16-27.89L817,223.18l-11.16-65.1Z" transform="translate(0 0)"/><path id="Path_3622" data-name="Path 3622" class="cls-10" d="M316.39,392.28l-19.57-6.8a7.11,7.11,0,0,0-7.74,2.68l-34.91,51.36a8.35,8.35,0,0,0,0,8.7l34.91,51.35a7.12,7.12,0,0,0,7.74,2.69L316,495.62,281,444.27Z" transform="translate(0 0)"/><path id="Path_3623" data-name="Path 3623" class="cls-11" d="M358.09,475.61V412.14a7.88,7.88,0,0,0-4.79-7l-27.71-9.63-33.34,48.8,32.93,48.15,28.13-9.77A7.9,7.9,0,0,0,358.09,475.61Z" transform="translate(0 0)"/><text class="cls-12" transform="translate(184.63 459.52)">&lt;</text><text class="cls-12" transform="translate(393.37 459.52)">&gt;</text></svg>