<svg xmlns="http://www.w3.org/2000/svg" width="132.009" height="36.237" viewBox="0 0 132.009 36.237">
    <defs>
        <style>
            .cls-1{fill:#00869a}.cls-2{fill:#193d68}.cls-3{fill:#222831}
        </style>
    </defs>
    <g id="New_Logo" data-name="New Logo" transform="translate(-145 -73.996)">
        <path id="Path_3622" d="M191.782 224.961l-6.454-2.1a2.443 2.443 0 0 0-2.556.83l-11.516 15.851a2.443 2.443 0 0 0 0 2.687l11.516 15.85a2.443 2.443 0 0 0 2.556.83l6.309-2.05-11.517-15.851z" class="cls-1" data-name="Path 3622" transform="translate(-25.854 -148.773)"/>
        <path id="Path_3623" d="M236.658 258.314v-19.593a2.443 2.443 0 0 0-1.58-2.174l-9.142-2.971-11 15.063L225.8 263.5l9.281-3.015a2.443 2.443 0 0 0 1.577-2.171z" class="cls-2" data-name="Path 3623" transform="translate(-56.971 -156.403)"/>
        <path id="Path_3624" d="M377.777 265.126c0-3.135 2.254-5.233 7.641-5.233s7.633 2.1 7.633 5.233v9.084c0 3.134-2.253 5.229-7.633 5.229s-7.641-2.1-7.641-5.229zm11.644.3c0-1.638-1.141-2.555-4-2.555s-4.011.917-4.011 2.555v8.474c0 1.646 1.145 2.56 4.011 2.56s4-.913 4-2.56z" class="cls-3" data-name="Path 3624" transform="translate(-171.931 -174.981)"/>
        <path id="Path_3625" d="M451.59 278a9.112 9.112 0 0 1-6.109 2.171c-3.515 0-5.382-2.023-5.382-4.847V261.7c0-.535.189-.765.686-.765H443c.5 0 .726.23.726.765v12.71c0 1.6.726 2.517 2.825 2.517a7.968 7.968 0 0 0 4.962-1.908V261.7c0-.535.191-.765.691-.765h2.252c.491 0 .683.23.683.765v17.34c0 .533-.192.724-.683.724h-2.064c-.535 0-.689-.191-.724-.724z" class="cls-3" data-name="Path 3625" transform="translate(-215.927 -175.713)"/>
        <path id="Path_3626" d="M504.475 260.2c.528 0 .685.231.724.726l.073 1.222a9.639 9.639 0 0 1 6.34-2.254c3.549 0 5.385 2.062 5.385 4.89v13.486c0 .532-.191.763-.686.763h-2.216c-.5 0-.727-.23-.727-.763v-12.61c0-1.565-.724-2.521-2.823-2.521a8.722 8.722 0 0 0-5.194 1.952v13.178c0 .532-.189.763-.684.763h-2.217c-.533 0-.728-.23-.728-.763v-17.346c0-.5.2-.726.728-.726z" class="cls-3" data-name="Path 3626" transform="translate(-259.43 -174.979)"/>
        <path id="Path_3627" d="M568.767 250.875c.493 0 .727.191.727.688l-.016 1.582c0 .535-.234.765-.727.765h-3.935v10.475c0 1.6 1 2.522 3.858 2.522h.726c.493 0 .718.226.718.759v1.605c0 .533-.225.724-.718.724h-1.263c-5.38 0-6.985-1.866-6.985-5.231V253.91h-2.1c-.528 0-.724-.229-.724-.765v-1.336c0-.5.2-.689.724-.726l1.889-.207h.228l-.016-3.46c0-.533.229-.762.724-.762h2.252c.5 0 .689.229.689.762l.015 3.46z" class="cls-3" data-name="Path 3627" transform="translate(-299.39 -165.634)"/>
        <path id="Path_3628" d="M607.1 246.732c0 .711-.3 1.69-2.636 1.69s-2.649-.979-2.649-1.69v-2.04c0-.711.316-1.692 2.649-1.692s2.636.981 2.636 1.692zm-.721-2.108c0-.5-.35-.973-1.915-.973s-1.928.476-1.928.973v2.176c0 .494.359.98 1.928.98s1.915-.475 1.915-.969zm-1.09 1.465l.4 1c.035.091-.022.159-.147.159h-.435c-.1 0-.108-.056-.149-.159l-.375-.891h-.575v.891c0 .1-.034.159-.146.159h-.439c-.1 0-.146-.056-.146-.159v-2.714c0-.116.044-.159.146-.159h1.182c.959 0 1.163.462 1.163.879v.226a.767.767 0 0 1-.483.767m-1.278-1.319v.876h.52c.291 0 .494-.143.494-.346v-.17c0-.225-.191-.36-.494-.36z" class="cls-3" data-name="Path 3628" transform="translate(-330.088 -163.055)"/>
        <path id="Path_3629" d="M333.468 266.78c.278.359.163.763-.363.763h-3.168a1.41 1.41 0 0 1-1.16-.763l-6.932-9.7h-1v9.691c0 .522-.2.762-.762.762h-2.449c-.515 0-.72-.241-.72-.762v-22.4c0-.519.206-.761.72-.761h2.449c.561 0 .762.242.762.761v9.786h.961l7.095-9.78a1.678 1.678 0 0 1 1.243-.761h2.645c.519 0 .644.363.359.761l-8.014 10.981z" class="cls-3" data-name="Path 3629" transform="translate(-128.963 -163.487)"/>
    </g>
</svg>
