<svg xmlns="http://www.w3.org/2000/svg" xmlns:xlink="http://www.w3.org/1999/xlink" xmlns:lucid="lucid" width="1194.7" height="556.18"><g transform="translate(0 0)" lucid:page-tab-id="_OhyXzll~9Zj"><g filter="url(#a)"><path d="M60 28c0-4.42 3.58-8 8-8h223.85c4.42 0 8 3.58 8 8v185.6c0 4.42-3.58 8-8 8H68c-4.42 0-8-3.58-8-8z" stroke="#000" stroke-opacity="0" stroke-width="2" fill="url(#b)"/><use xlink:href="#c" transform="matrix(1,0,0,1,64.8,24.800000000000015) translate(15.72222222222224 101.60000000000001)"/><use xlink:href="#d" transform="matrix(1,0,0,1,64.8,24.800000000000015) translate(69.00000000000001 101.60000000000001)"/><use xlink:href="#e" transform="matrix(1,0,0,1,64.8,24.800000000000015) translate(138.83333333333334 101.60000000000001)"/></g><g filter="url(#a)"><path d="M340 28c0-4.42 3.58-8 8-8h223.85c4.42 0 8 3.58 8 8v185.6c0 4.42-3.58 8-8 8H348c-4.42 0-8-3.58-8-8z" stroke="#000" stroke-opacity="0" stroke-width="2" fill="url(#f)"/><use xlink:href="#g" transform="matrix(1,0,0,1,344.8,24.800000000000015) translate(51.111111111111114 65.6)"/><use xlink:href="#h" transform="matrix(1,0,0,1,344.8,24.800000000000015) translate(82.16666666666667 65.6)"/><use xlink:href="#i" transform="matrix(1,0,0,1,344.8,24.800000000000015) translate(149.8888888888889 65.6)"/><use xlink:href="#j" transform="matrix(1,0,0,1,344.8,24.800000000000015) translate(36.83333333333333 89.6)"/><use xlink:href="#k" transform="matrix(1,0,0,1,344.8,24.800000000000015) translate(158.72222222222223 89.6)"/><use xlink:href="#l" transform="matrix(1,0,0,1,344.8,24.800000000000015) translate(15.638888888888896 113.6)"/><use xlink:href="#m" transform="matrix(1,0,0,1,344.8,24.800000000000015) translate(112.1388888888889 113.6)"/><use xlink:href="#i" transform="matrix(1,0,0,1,344.8,24.800000000000015) translate(185.36111111111111 113.6)"/><use xlink:href="#n" transform="matrix(1,0,0,1,344.8,24.800000000000015) translate(18.638888888888896 137.6)"/><use xlink:href="#o" transform="matrix(1,0,0,1,344.8,24.800000000000015) translate(88.47222222222224 137.6)"/><use xlink:href="#p" transform="matrix(1,0,0,1,344.8,24.800000000000015) translate(131.58333333333337 137.6)"/><use xlink:href="#q" transform="matrix(1,0,0,1,344.8,24.800000000000015) translate(168.08333333333334 137.6)"/></g><g filter="url(#a)"><path d="M620 28c0-4.42 3.58-8 8-8h223.85c4.42 0 8 3.58 8 8v185.6c0 4.42-3.58 8-8 8H628c-4.42 0-8-3.58-8-8z" stroke="#000" stroke-opacity="0" stroke-width="2" fill="url(#r)"/><use xlink:href="#s" transform="matrix(1,0,0,1,624.8,24.800000000000015) translate(60.55555555555556 77.6)"/><use xlink:href="#t" transform="matrix(1,0,0,1,624.8,24.800000000000015) translate(153.77777777777777 77.6)"/><use xlink:href="#j" transform="matrix(1,0,0,1,624.8,24.800000000000015) translate(32.388888888888886 101.6)"/><use xlink:href="#u" transform="matrix(1,0,0,1,624.8,24.800000000000015) translate(154.27777777777777 101.6)"/><use xlink:href="#v" transform="matrix(1,0,0,1,624.8,24.800000000000015) translate(83.97222222222223 125.6)"/></g><path d="M581.35 120.8h18.03" stroke="#666" stroke-width="3" fill="none"/><path d="M581.4 122.3h-1.55v-3h1.54z" fill="#666"/><path d="M615.15 120.8l-14.27 4.64v-9.28z" stroke="#666" stroke-width="3" fill="#fff"/><g filter="url(#a)"><path d="M900 28c0-4.42 3.58-8 8-8h223.85c4.42 0 8 3.58 8 8v185.6c0 4.42-3.58 8-8 8H908c-4.42 0-8-3.58-8-8z" stroke="#000" stroke-opacity="0" stroke-width="2" fill="url(#w)"/><use xlink:href="#x" transform="matrix(1,0,0,1,904.8,24.800000000000015) translate(13.472222222222225 77.6)"/><use xlink:href="#y" transform="matrix(1,0,0,1,904.8,24.800000000000015) translate(117.80555555555557 77.6)"/><use xlink:href="#z" transform="matrix(1,0,0,1,904.8,24.800000000000015) translate(140.02777777777777 77.6)"/><use xlink:href="#A" transform="matrix(1,0,0,1,904.8,24.800000000000015) translate(198.75 77.6)"/><use xlink:href="#B" transform="matrix(1,0,0,1,904.8,24.800000000000015) translate(39.750000000000014 101.6)"/><use xlink:href="#C" transform="matrix(1,0,0,1,904.8,24.800000000000015) translate(77.41666666666667 101.6)"/><use xlink:href="#D" transform="matrix(1,0,0,1,904.8,24.800000000000015) translate(133.97222222222223 101.6)"/><use xlink:href="#E" transform="matrix(1,0,0,1,904.8,24.800000000000015) translate(36.80555555555556 125.6)"/><use xlink:href="#e" transform="matrix(1,0,0,1,904.8,24.800000000000015) translate(117.75 125.6)"/></g><path d="M301.35 120.8h18.03" stroke="#666" stroke-width="3" fill="none"/><path d="M301.4 122.3h-1.55v-3h1.54z" fill="#666"/><path d="M335.14 120.8l-14.26 4.64v-9.28z" stroke="#666" stroke-width="3" fill="#fff"/><g filter="url(#a)"><path d="M60 333.8c0-4.42 3.58-8 8-8h223.85c4.42 0 8 3.58 8 8v185.6c0 4.42-3.58 8-8 8H68c-4.42 0-8-3.58-8-8z" stroke="#000" stroke-opacity="0" stroke-width="2" fill="url(#F)"/><use xlink:href="#G" transform="matrix(1,0,0,1,64.8,330.5999999999999) translate(68.91666666666667 89.60000000000001)"/><use xlink:href="#H" transform="matrix(1,0,0,1,64.8,330.5999999999999) translate(109.97222222222223 89.60000000000001)"/><use xlink:href="#I" transform="matrix(1,0,0,1,64.8,330.5999999999999) translate(145.41666666666669 89.60000000000001)"/><use xlink:href="#J" transform="matrix(1,0,0,1,64.8,330.5999999999999) translate(54.55555555555556 113.60000000000001)"/></g><g filter="url(#a)"><path d="M340 333.8c0-4.42 3.58-8 8-8h223.85c4.42 0 8 3.58 8 8v185.6c0 4.42-3.58 8-8 8H348c-4.42 0-8-3.58-8-8z" stroke="#000" stroke-opacity="0" stroke-width="2" fill="url(#K)"/><use xlink:href="#L" transform="matrix(1,0,0,1,344.8,330.5999999999999) translate(26.249999999999996 65.6)"/><use xlink:href="#M" transform="matrix(1,0,0,1,344.8,330.5999999999999) translate(81.75 65.6)"/><use xlink:href="#N" transform="matrix(1,0,0,1,344.8,330.5999999999999) translate(117.19444444444444 65.6)"/><use xlink:href="#O" transform="matrix(1,0,0,1,344.8,330.5999999999999) translate(170.36111111111114 65.6)"/><use xlink:href="#P" transform="matrix(1,0,0,1,344.8,330.5999999999999) translate(24.61111111111111 89.6)"/><use xlink:href="#Q" transform="matrix(1,0,0,1,344.8,330.5999999999999) translate(129.94444444444446 89.6)"/><use xlink:href="#R" transform="matrix(1,0,0,1,344.8,330.5999999999999) translate(43.97222222222223 113.6)"/><use xlink:href="#S" transform="matrix(1,0,0,1,344.8,330.5999999999999) translate(143.80555555555557 113.6)"/><use xlink:href="#T" transform="matrix(1,0,0,1,344.8,330.5999999999999) translate(75.6388888888889 137.6)"/></g><g filter="url(#a)"><path d="M620 333.8c0-4.42 3.58-8 8-8h223.85c4.42 0 8 3.58 8 8v185.6c0 4.42-3.58 8-8 8H628c-4.42 0-8-3.58-8-8z" stroke="#000" stroke-opacity="0" stroke-width="2" fill="url(#U)"/><use xlink:href="#V" transform="matrix(1,0,0,1,624.8,330.5999999999998) translate(38.44444444444444 53.6)"/><use xlink:href="#W" transform="matrix(1,0,0,1,624.8,330.5999999999998) translate(98.27777777777777 53.6)"/><use xlink:href="#X" transform="matrix(1,0,0,1,624.8,330.5999999999998) translate(12.972222222222225 77.6)"/><use xlink:href="#Y" transform="matrix(1,0,0,1,624.8,330.5999999999998) translate(111.69444444444446 77.6)"/><use xlink:href="#Z" transform="matrix(1,0,0,1,624.8,330.5999999999998) translate(140.52777777777777 77.6)"/><use xlink:href="#aa" transform="matrix(1,0,0,1,624.8,330.5999999999998) translate(21.722222222222225 101.6)"/><use xlink:href="#ab" transform="matrix(1,0,0,1,624.8,330.5999999999998) translate(106.11111111111113 101.6)"/><use xlink:href="#ac" transform="matrix(1,0,0,1,624.8,330.5999999999998) translate(128.33333333333337 101.6)"/><use xlink:href="#A" transform="matrix(1,0,0,1,624.8,330.5999999999998) translate(190.5 101.6)"/><use xlink:href="#ad" transform="matrix(1,0,0,1,624.8,330.5999999999998) translate(33.416666666666686 125.6)"/><use xlink:href="#ae" transform="matrix(1,0,0,1,624.8,330.5999999999998) translate(62.250000000000014 125.6)"/><use xlink:href="#af" transform="matrix(1,0,0,1,624.8,330.5999999999998) translate(114.36111111111113 125.6)"/><use xlink:href="#ag" transform="matrix(1,0,0,1,624.8,330.5999999999998) translate(170.91666666666669 125.6)"/><use xlink:href="#ae" transform="matrix(1,0,0,1,624.8,330.5999999999998) translate(62.861111111111114 149.6)"/><use xlink:href="#ah" transform="matrix(1,0,0,1,624.8,330.5999999999998) translate(114.97222222222223 149.6)"/></g><g filter="url(#a)"><path d="M900 333.8c0-4.42 3.58-8 8-8h223.85c4.42 0 8 3.58 8 8v185.6c0 4.42-3.58 8-8 8H908c-4.42 0-8-3.58-8-8z" stroke="#000" stroke-opacity="0" stroke-width="2" fill="url(#ai)"/><use xlink:href="#aj" transform="matrix(1,0,0,1,904.8,330.5999999999998) translate(22.97222222222221 53.6)"/><use xlink:href="#ak" transform="matrix(1,0,0,1,904.8,330.5999999999998) translate(117.19444444444444 53.6)"/><use xlink:href="#al" transform="matrix(1,0,0,1,904.8,330.5999999999998) translate(164.80555555555557 53.6)"/><use xlink:href="#am" transform="matrix(1,0,0,1,904.8,330.5999999999998) translate(14.08333333333334 77.6)"/><use xlink:href="#an" transform="matrix(1,0,0,1,904.8,330.5999999999998) translate(63.97222222222223 77.6)"/><use xlink:href="#ao" transform="matrix(1,0,0,1,904.8,330.5999999999998) translate(88.30555555555556 77.6)"/><use xlink:href="#ap" transform="matrix(1,0,0,1,904.8,330.5999999999998) translate(137.08333333333331 77.6)"/><use xlink:href="#aq" transform="matrix(1,0,0,1,904.8,330.5999999999998) translate(177.02777777777777 77.6)"/><use xlink:href="#ar" transform="matrix(1,0,0,1,904.8,330.5999999999998) translate(26.22222222222221 101.6)"/><use xlink:href="#as" transform="matrix(1,0,0,1,904.8,330.5999999999998) translate(134.94444444444446 101.6)"/><use xlink:href="#ao" transform="matrix(1,0,0,1,904.8,330.5999999999998) translate(23.361111111111125 125.6)"/><use xlink:href="#at" transform="matrix(1,0,0,1,904.8,330.5999999999998) translate(72.1388888888889 125.6)"/><use xlink:href="#au" transform="matrix(1,0,0,1,904.8,330.5999999999998) translate(137.69444444444446 125.6)"/><use xlink:href="#av" transform="matrix(1,0,0,1,904.8,330.5999999999998) translate(83.36111111111111 149.6)"/><use xlink:href="#aw" transform="matrix(1,0,0,1,904.8,330.5999999999998) translate(123.30555555555556 149.6)"/></g><path d="M1141.35 120.8h38.5v152.9H20v152.9h19.38" stroke="#666" stroke-width="3" fill="none"/><path d="M1141.4 122.3h-1.55v-3h1.54z" fill="#666"/><path d="M55.15 426.6l-14.27 4.64v-9.28z" stroke="#666" stroke-width="3" fill="#fff"/><path d="M861.35 120.8h18.03" stroke="#666" stroke-width="3" fill="none"/><path d="M861.4 122.3h-1.55v-3h1.54z" fill="#666"/><path d="M895.15 120.8l-14.27 4.64v-9.28z" stroke="#666" stroke-width="3" fill="#fff"/><path d="M301.35 426.6h18.03" stroke="#666" stroke-width="3" fill="none"/><path d="M301.4 428.1h-1.55v-3h1.54z" fill="#666"/><path d="M335.15 426.6l-14.27 4.64v-9.28z" stroke="#666" stroke-width="3" fill="#fff"/><path d="M581.35 426.6h18.03" stroke="#666" stroke-width="3" fill="none"/><path d="M581.4 428.1h-1.55v-3h1.54z" fill="#666"/><path d="M615.15 426.6l-14.27 4.64v-9.28z" stroke="#666" stroke-width="3" fill="#fff"/><path d="M861.35 426.6h18.03" stroke="#666" stroke-width="3" fill="none"/><path d="M861.4 428.1h-1.55v-3h1.54z" fill="#666"/><path d="M895.15 426.6l-14.27 4.64v-9.28z" stroke="#666" stroke-width="3" fill="#fff"/><defs><linearGradient gradientUnits="userSpaceOnUse" id="b" x1="60" y1="221.6" x2="299.85" y2="20"><stop offset="2.52%" stop-color="#3c8aa0" stop-opacity=".7"/><stop offset="57.42%" stop-color="#3a6d8c" stop-opacity=".94"/><stop offset="100%" stop-color="#255994" stop-opacity=".8"/></linearGradient><path fill="#fff" d="M24-248c93 1 206-16 204 79-1 75-69 88-152 82V0H24v-248zm52 121c47 0 100 7 100-41 0-47-54-39-100-39v80" id="ax"/><path fill="#fff" d="M133-34C117-15 103 5 69 4 32 3 11-16 11-54c-1-60 55-63 116-61 1-26-3-47-28-47-18 1-26 9-28 27l-52-2c7-38 36-58 82-57s74 22 75 68l1 82c-1 14 12 18 25 15v27c-30 8-71 5-69-32zm-48 3c29 0 43-24 42-57-32 0-66-3-65 30 0 17 8 27 23 27" id="ay"/><path fill="#fff" d="M195-6C206 82 75 100 31 46c-4-6-6-13-8-21l49-6c3 16 16 24 34 25 40 0 42-37 40-79-11 22-30 35-61 35-53 0-70-43-70-97 0-56 18-96 73-97 30 0 46 14 59 34l2-30h47zm-90-29c32 0 41-27 41-63 0-35-9-62-40-62-32 0-39 29-40 63 0 36 9 62 39 62" id="az"/><path fill="#fff" d="M185-48c-13 30-37 53-82 52C43 2 14-33 14-96s30-98 90-98c62 0 83 45 84 108H66c0 31 8 55 39 56 18 0 30-7 34-22zm-45-69c5-46-57-63-70-21-2 6-4 13-4 21h74" id="aA"/><g id="c"><use transform="matrix(0.05555555555555555,0,0,0.05555555555555555,0,0)" xlink:href="#ax"/><use transform="matrix(0.05555555555555555,0,0,0.05555555555555555,13.333333333333332,0)" xlink:href="#ay"/><use transform="matrix(0.05555555555555555,0,0,0.05555555555555555,24.444444444444443,0)" xlink:href="#az"/><use transform="matrix(0.05555555555555555,0,0,0.05555555555555555,36.61111111111111,0)" xlink:href="#aA"/></g><path fill="#fff" d="M135-194c52 0 70 43 70 98 0 56-19 99-73 100-30 1-46-15-58-35L72 0H24l1-261h50v104c11-23 29-37 60-37zM114-30c31 0 40-27 40-66 0-37-7-63-39-63s-41 28-41 65c0 36 8 64 40 64" id="aB"/><path fill="#fff" d="M25-224v-37h50v37H25zM25 0v-190h50V0H25" id="aC"/><path fill="#fff" d="M135-194c87-1 58 113 63 194h-50c-7-57 23-157-34-157-59 0-34 97-39 157H25l-1-190h47c2 12-1 28 3 38 12-26 28-41 61-42" id="aD"/><path fill="#fff" d="M137-138c1-29-70-34-71-4 15 46 118 7 119 86 1 83-164 76-172 9l43-7c4 19 20 25 44 25 33 8 57-30 24-41C81-84 22-81 20-136c-2-80 154-74 161-7" id="aE"/><g id="d"><use transform="matrix(0.05555555555555555,0,0,0.05555555555555555,0,0)" xlink:href="#aB"/><use transform="matrix(0.05555555555555555,0,0,0.05555555555555555,12.166666666666666,0)" xlink:href="#aA"/><use transform="matrix(0.05555555555555555,0,0,0.05555555555555555,23.27777777777778,0)" xlink:href="#az"/><use transform="matrix(0.05555555555555555,0,0,0.05555555555555555,35.44444444444444,0)" xlink:href="#aC"/><use transform="matrix(0.05555555555555555,0,0,0.05555555555555555,41,0)" xlink:href="#aD"/><use transform="matrix(0.05555555555555555,0,0,0.05555555555555555,53.166666666666664,0)" xlink:href="#aE"/></g><path fill="#fff" d="M25 0v-261h50V0H25" id="aF"/><path fill="#fff" d="M110-194c64 0 96 36 96 99 0 64-35 99-97 99-61 0-95-36-95-99 0-62 34-99 96-99zm-1 164c35 0 45-28 45-65 0-40-10-65-43-65-34 0-45 26-45 65 0 36 10 65 43 65" id="aG"/><path fill="#fff" d="M88-194c31-1 46 15 58 34l-1-101h50l1 261h-48c-2-10 0-23-3-31C134-8 116 4 84 4 32 4 16-41 15-95c0-56 19-97 73-99zm17 164c33 0 40-30 41-66 1-37-9-64-41-64s-38 30-39 65c0 43 13 65 39 65" id="aH"/><path fill="#fff" d="M24 0v-54h51V0H24" id="aI"/><g id="e"><use transform="matrix(0.05555555555555555,0,0,0.05555555555555555,0,0)" xlink:href="#aF"/><use transform="matrix(0.05555555555555555,0,0,0.05555555555555555,5.555555555555555,0)" xlink:href="#aG"/><use transform="matrix(0.05555555555555555,0,0,0.05555555555555555,17.72222222222222,0)" xlink:href="#ay"/><use transform="matrix(0.05555555555555555,0,0,0.05555555555555555,28.833333333333332,0)" xlink:href="#aH"/><use transform="matrix(0.05555555555555555,0,0,0.05555555555555555,41,0)" xlink:href="#aC"/><use transform="matrix(0.05555555555555555,0,0,0.05555555555555555,46.55555555555556,0)" xlink:href="#aD"/><use transform="matrix(0.05555555555555555,0,0,0.05555555555555555,58.72222222222222,0)" xlink:href="#az"/><use transform="matrix(0.05555555555555555,0,0,0.05555555555555555,70.88888888888889,0)" xlink:href="#aI"/></g><filter id="a" filterUnits="objectBoundingBox" x="-.03" y="-.03" width="1.08" height="1.1"><feOffset result="offOut" in="SourceAlpha" dx="3.68" dy="4.74"/><feGaussianBlur result="blurOut" in="offOut" stdDeviation="5"/><feColorMatrix result="colorOut" in="blurOut" values="0 0 0 0 0 0 0 0 0 0 0 0 0 0 0 0 0 0 0.5019607843137255 0"/><feBlend in="SourceGraphic" in2="colorOut"/></filter><linearGradient gradientUnits="userSpaceOnUse" id="f" x1="340" y1="221.6" x2="579.85" y2="20"><stop offset="2.52%" stop-color="#3c8aa0" stop-opacity=".7"/><stop offset="57.42%" stop-color="#3a6d8c" stop-opacity=".94"/><stop offset="100%" stop-color="#255994" stop-opacity=".8"/></linearGradient><path fill="#fff" d="M199 0l-22-63H83L61 0H9l90-248h61L250 0h-51zm-33-102l-36-108c-10 38-24 72-36 108h72" id="aJ"/><g id="g"><use transform="matrix(0.05555555555555555,0,0,0.05555555555555555,0,0)" xlink:href="#aJ"/><use transform="matrix(0.05555555555555555,0,0,0.05555555555555555,14.388888888888888,0)" xlink:href="#aF"/><use transform="matrix(0.05555555555555555,0,0,0.05555555555555555,19.944444444444443,0)" xlink:href="#aF"/></g><path fill="#fff" d="M115-3C79 11 28 4 28-45v-112H4v-33h27l15-45h31v45h36v33H77v99c-1 23 16 31 38 25v30" id="aK"/><g id="h"><use transform="matrix(0.05555555555555555,0,0,0.05555555555555555,0,0)" xlink:href="#ay"/><use transform="matrix(0.05555555555555555,0,0,0.05555555555555555,11.11111111111111,0)" xlink:href="#aE"/><use transform="matrix(0.05555555555555555,0,0,0.05555555555555555,22.22222222222222,0)" xlink:href="#aE"/><use transform="matrix(0.05555555555555555,0,0,0.05555555555555555,33.33333333333333,0)" xlink:href="#aA"/><use transform="matrix(0.05555555555555555,0,0,0.05555555555555555,44.44444444444444,0)" xlink:href="#aK"/><use transform="matrix(0.05555555555555555,0,0,0.05555555555555555,51.05555555555556,0)" xlink:href="#aE"/></g><path fill="#fff" d="M135-150c-39-12-60 13-60 57V0H25l-1-190h47c2 13-1 29 3 40 6-28 27-53 61-41v41" id="aL"/><g id="i"><use transform="matrix(0.05555555555555555,0,0,0.05555555555555555,0,0)" xlink:href="#ay"/><use transform="matrix(0.05555555555555555,0,0,0.05555555555555555,11.11111111111111,0)" xlink:href="#aL"/><use transform="matrix(0.05555555555555555,0,0,0.05555555555555555,18.88888888888889,0)" xlink:href="#aA"/></g><path fill="#fff" d="M231 0h-52l-39-155L100 0H48L-1-190h46L77-45c9-52 24-97 36-145h53l37 145 32-145h46" id="aM"/><g id="j"><use transform="matrix(0.05555555555555555,0,0,0.05555555555555555,0,0)" xlink:href="#aH"/><use transform="matrix(0.05555555555555555,0,0,0.05555555555555555,12.166666666666666,0)" xlink:href="#aG"/><use transform="matrix(0.05555555555555555,0,0,0.05555555555555555,24.333333333333332,0)" xlink:href="#aM"/><use transform="matrix(0.05555555555555555,0,0,0.05555555555555555,39.888888888888886,0)" xlink:href="#aD"/><use transform="matrix(0.05555555555555555,0,0,0.05555555555555555,52.05555555555555,0)" xlink:href="#aF"/><use transform="matrix(0.05555555555555555,0,0,0.05555555555555555,57.61111111111111,0)" xlink:href="#aG"/><use transform="matrix(0.05555555555555555,0,0,0.05555555555555555,69.77777777777777,0)" xlink:href="#ay"/><use transform="matrix(0.05555555555555555,0,0,0.05555555555555555,80.88888888888889,0)" xlink:href="#aH"/><use transform="matrix(0.05555555555555555,0,0,0.05555555555555555,93.05555555555556,0)" xlink:href="#aA"/><use transform="matrix(0.05555555555555555,0,0,0.05555555555555555,104.16666666666667,0)" xlink:href="#aH"/></g><g id="k"><use transform="matrix(0.05555555555555555,0,0,0.05555555555555555,0,0)" xlink:href="#ay"/><use transform="matrix(0.05555555555555555,0,0,0.05555555555555555,11.11111111111111,0)" xlink:href="#aD"/><use transform="matrix(0.05555555555555555,0,0,0.05555555555555555,23.27777777777778,0)" xlink:href="#aH"/></g><g id="l"><use transform="matrix(0.05555555555555555,0,0,0.05555555555555555,0,0)" xlink:href="#aL"/><use transform="matrix(0.05555555555555555,0,0,0.05555555555555555,7.777777777777778,0)" xlink:href="#aA"/><use transform="matrix(0.05555555555555555,0,0,0.05555555555555555,18.88888888888889,0)" xlink:href="#aD"/><use transform="matrix(0.05555555555555555,0,0,0.05555555555555555,31.05555555555556,0)" xlink:href="#aH"/><use transform="matrix(0.05555555555555555,0,0,0.05555555555555555,43.22222222222222,0)" xlink:href="#aA"/><use transform="matrix(0.05555555555555555,0,0,0.05555555555555555,54.33333333333333,0)" xlink:href="#aL"/><use transform="matrix(0.05555555555555555,0,0,0.05555555555555555,62.11111111111111,0)" xlink:href="#aA"/><use transform="matrix(0.05555555555555555,0,0,0.05555555555555555,73.22222222222221,0)" xlink:href="#aH"/><use transform="matrix(0.05555555555555555,0,0,0.05555555555555555,85.38888888888889,0)" xlink:href="#aI"/></g><path fill="#fff" d="M169-182c-1-43-94-46-97-3 18 66 151 10 154 114 3 95-165 93-204 36-6-8-10-19-12-30l50-8c3 46 112 56 116 5-17-69-150-10-154-114-4-87 153-88 188-35 5 8 8 18 10 28" id="aN"/><path fill="#fff" d="M190-63c-7 42-38 67-86 67-59 0-84-38-90-98-12-110 154-137 174-36l-49 2c-2-19-15-32-35-32-30 0-35 28-38 64-6 74 65 87 74 30" id="aO"/><path fill="#fff" d="M135-194c53 0 70 44 70 98 0 56-19 98-73 100-31 1-45-17-59-34 3 33 2 69 2 105H25l-1-265h48c2 10 0 23 3 31 11-24 29-35 60-35zM114-30c33 0 39-31 40-66 0-38-9-64-40-64-56 0-55 130 0 130" id="aP"/><g id="m"><use transform="matrix(0.05555555555555555,0,0,0.05555555555555555,0,0)" xlink:href="#aN"/><use transform="matrix(0.05555555555555555,0,0,0.05555555555555555,13.333333333333332,0)" xlink:href="#aO"/><use transform="matrix(0.05555555555555555,0,0,0.05555555555555555,24.444444444444443,0)" xlink:href="#aL"/><use transform="matrix(0.05555555555555555,0,0,0.05555555555555555,32.22222222222222,0)" xlink:href="#aC"/><use transform="matrix(0.05555555555555555,0,0,0.05555555555555555,37.77777777777778,0)" xlink:href="#aP"/><use transform="matrix(0.05555555555555555,0,0,0.05555555555555555,49.94444444444444,0)" xlink:href="#aK"/><use transform="matrix(0.05555555555555555,0,0,0.05555555555555555,56.55555555555556,0)" xlink:href="#aE"/></g><g id="n"><use transform="matrix(0.05555555555555555,0,0,0.05555555555555555,0,0)" xlink:href="#aF"/><use transform="matrix(0.05555555555555555,0,0,0.05555555555555555,5.555555555555555,0)" xlink:href="#aG"/><use transform="matrix(0.05555555555555555,0,0,0.05555555555555555,17.72222222222222,0)" xlink:href="#ay"/><use transform="matrix(0.05555555555555555,0,0,0.05555555555555555,28.833333333333332,0)" xlink:href="#aH"/><use transform="matrix(0.05555555555555555,0,0,0.05555555555555555,41,0)" xlink:href="#aA"/><use transform="matrix(0.05555555555555555,0,0,0.05555555555555555,52.111111111111114,0)" xlink:href="#aH"/></g><path fill="#fff" d="M67-93c0 74 22 123 53 168H70C40 30 18-18 18-93s22-123 52-168h50c-32 44-53 94-53 168" id="aQ"/><path fill="#fff" d="M85 4C-2 5 27-109 22-190h50c7 57-23 150 33 157 60-5 35-97 40-157h50l1 190h-47c-2-12 1-28-3-38-12 25-28 42-61 42" id="aR"/><g id="o"><use transform="matrix(0.05555555555555555,0,0,0.05555555555555555,0,0)" xlink:href="#aQ"/><use transform="matrix(0.05555555555555555,0,0,0.05555555555555555,6.611111111111111,0)" xlink:href="#aB"/><use transform="matrix(0.05555555555555555,0,0,0.05555555555555555,18.77777777777778,0)" xlink:href="#aR"/><use transform="matrix(0.05555555555555555,0,0,0.05555555555555555,30.944444444444443,0)" xlink:href="#aK"/></g><g id="p"><use transform="matrix(0.05555555555555555,0,0,0.05555555555555555,0,0)" xlink:href="#aD"/><use transform="matrix(0.05555555555555555,0,0,0.05555555555555555,12.166666666666666,0)" xlink:href="#aG"/><use transform="matrix(0.05555555555555555,0,0,0.05555555555555555,24.333333333333332,0)" xlink:href="#aK"/></g><path fill="#fff" d="M102-93c0 74-22 123-52 168H0C30 29 54-18 53-93c0-74-22-123-53-168h50c30 45 52 94 52 168" id="aS"/><g id="q"><use transform="matrix(0.05555555555555555,0,0,0.05555555555555555,0,0)" xlink:href="#aL"/><use transform="matrix(0.05555555555555555,0,0,0.05555555555555555,7.777777777777778,0)" xlink:href="#aR"/><use transform="matrix(0.05555555555555555,0,0,0.05555555555555555,19.944444444444443,0)" xlink:href="#aD"/><use transform="matrix(0.05555555555555555,0,0,0.05555555555555555,32.11111111111111,0)" xlink:href="#aS"/><use transform="matrix(0.05555555555555555,0,0,0.05555555555555555,38.722222222222214,0)" xlink:href="#aI"/></g><linearGradient gradientUnits="userSpaceOnUse" id="r" x1="620" y1="221.6" x2="859.85" y2="20"><stop offset="2.52%" stop-color="#3c8aa0" stop-opacity=".7"/><stop offset="57.42%" stop-color="#3a6d8c" stop-opacity=".94"/><stop offset="100%" stop-color="#255994" stop-opacity=".8"/></linearGradient><path fill="#fff" d="M176-78C186 10 51 31 16-35c-5-9-9-19-11-32l52-8c4 21 12 37 35 38 23 0 32-16 32-40v-130H75v-41h101v170" id="aT"/><path fill="#fff" d="M128 0H69L1-190h53L99-40l48-150h52" id="aU"/><g id="s"><use transform="matrix(0.05555555555555555,0,0,0.05555555555555555,0,0)" xlink:href="#aT"/><use transform="matrix(0.05555555555555555,0,0,0.05555555555555555,11.11111111111111,0)" xlink:href="#ay"/><use transform="matrix(0.05555555555555555,0,0,0.05555555555555555,22.22222222222222,0)" xlink:href="#aU"/><use transform="matrix(0.05555555555555555,0,0,0.05555555555555555,33.33333333333333,0)" xlink:href="#ay"/><use transform="matrix(0.05555555555555555,0,0,0.05555555555555555,44.44444444444444,0)" xlink:href="#aE"/><use transform="matrix(0.05555555555555555,0,0,0.05555555555555555,55.55555555555556,0)" xlink:href="#aL"/><use transform="matrix(0.05555555555555555,0,0,0.05555555555555555,63.33333333333333,0)" xlink:href="#aC"/><use transform="matrix(0.05555555555555555,0,0,0.05555555555555555,68.88888888888889,0)" xlink:href="#aP"/><use transform="matrix(0.05555555555555555,0,0,0.05555555555555555,81.05555555555556,0)" xlink:href="#aK"/></g><g id="t"><use transform="matrix(0.05555555555555555,0,0,0.05555555555555555,0,0)" xlink:href="#aC"/><use transform="matrix(0.05555555555555555,0,0,0.05555555555555555,5.555555555555555,0)" xlink:href="#aE"/></g><path fill="#fff" d="M121-226c-27-7-43 5-38 36h38v33H83V0H34v-157H6v-33h28c-9-59 32-81 87-68v32" id="aV"/><path fill="#fff" d="M220-157c-53 9-28 100-34 157h-49v-107c1-27-5-49-29-50C55-147 81-57 75 0H25l-1-190h47c2 12-1 28 3 38 10-53 101-56 108 0 13-22 24-43 59-42 82 1 51 116 57 194h-49v-107c-1-25-5-48-29-50" id="aW"/><g id="u"><use transform="matrix(0.05555555555555555,0,0,0.05555555555555555,0,0)" xlink:href="#aV"/><use transform="matrix(0.05555555555555555,0,0,0.05555555555555555,6.611111111111111,0)" xlink:href="#aL"/><use transform="matrix(0.05555555555555555,0,0,0.05555555555555555,14.388888888888888,0)" xlink:href="#aG"/><use transform="matrix(0.05555555555555555,0,0,0.05555555555555555,26.555555555555557,0)" xlink:href="#aW"/></g><path fill="#fff" d="M195 0l-88-114-31 24V0H24v-248h52v113l112-113h60L142-143 257 0h-62" id="aX"/><g id="v"><use transform="matrix(0.05555555555555555,0,0,0.05555555555555555,0,0)" xlink:href="#aX"/><use transform="matrix(0.05555555555555555,0,0,0.05555555555555555,14.388888888888888,0)" xlink:href="#aG"/><use transform="matrix(0.05555555555555555,0,0,0.05555555555555555,26.555555555555554,0)" xlink:href="#aR"/><use transform="matrix(0.05555555555555555,0,0,0.05555555555555555,38.72222222222222,0)" xlink:href="#aD"/><use transform="matrix(0.05555555555555555,0,0,0.05555555555555555,50.888888888888886,0)" xlink:href="#aK"/><use transform="matrix(0.05555555555555555,0,0,0.05555555555555555,57.5,0)" xlink:href="#aI"/></g><linearGradient gradientUnits="userSpaceOnUse" id="w" x1="900" y1="221.6" x2="1139.85" y2="20"><stop offset="2.52%" stop-color="#3c8aa0" stop-opacity=".7"/><stop offset="57.42%" stop-color="#3a6d8c" stop-opacity=".94"/><stop offset="100%" stop-color="#255994" stop-opacity=".8"/></linearGradient><g id="x"><use transform="matrix(0.05555555555555555,0,0,0.05555555555555555,0,0)" xlink:href="#aT"/><use transform="matrix(0.05555555555555555,0,0,0.05555555555555555,11.11111111111111,0)" xlink:href="#ay"/><use transform="matrix(0.05555555555555555,0,0,0.05555555555555555,22.22222222222222,0)" xlink:href="#aU"/><use transform="matrix(0.05555555555555555,0,0,0.05555555555555555,33.33333333333333,0)" xlink:href="#ay"/><use transform="matrix(0.05555555555555555,0,0,0.05555555555555555,44.44444444444444,0)" xlink:href="#aE"/><use transform="matrix(0.05555555555555555,0,0,0.05555555555555555,55.55555555555556,0)" xlink:href="#aO"/><use transform="matrix(0.05555555555555555,0,0,0.05555555555555555,66.66666666666667,0)" xlink:href="#aL"/><use transform="matrix(0.05555555555555555,0,0,0.05555555555555555,74.44444444444444,0)" xlink:href="#aC"/><use transform="matrix(0.05555555555555555,0,0,0.05555555555555555,80,0)" xlink:href="#aP"/><use transform="matrix(0.05555555555555555,0,0,0.05555555555555555,92.16666666666667,0)" xlink:href="#aK"/></g><g id="y"><use transform="matrix(0.05555555555555555,0,0,0.05555555555555555,0,0)" xlink:href="#aC"/><use transform="matrix(0.05555555555555555,0,0,0.05555555555555555,5.555555555555555,0)" xlink:href="#aE"/></g><g id="z"><use transform="matrix(0.05555555555555555,0,0,0.05555555555555555,0,0)" xlink:href="#aE"/><use transform="matrix(0.05555555555555555,0,0,0.05555555555555555,11.11111111111111,0)" xlink:href="#aA"/><use transform="matrix(0.05555555555555555,0,0,0.05555555555555555,22.22222222222222,0)" xlink:href="#aK"/><use transform="matrix(0.05555555555555555,0,0,0.05555555555555555,28.833333333333332,0)" xlink:href="#aR"/><use transform="matrix(0.05555555555555555,0,0,0.05555555555555555,41,0)" xlink:href="#aP"/></g><g id="A"><use transform="matrix(0.05555555555555555,0,0,0.05555555555555555,0,0)" xlink:href="#aK"/><use transform="matrix(0.05555555555555555,0,0,0.05555555555555555,6.611111111111111,0)" xlink:href="#aG"/></g><g id="B"><use transform="matrix(0.05555555555555555,0,0,0.05555555555555555,0,0)" xlink:href="#aL"/><use transform="matrix(0.05555555555555555,0,0,0.05555555555555555,7.777777777777778,0)" xlink:href="#aR"/><use transform="matrix(0.05555555555555555,0,0,0.05555555555555555,19.944444444444443,0)" xlink:href="#aD"/></g><path fill="#fff" d="M114-157C55-157 80-60 75 0H25v-261h50l-1 109c12-26 28-41 61-42 86-1 58 113 63 194h-50c-7-57 23-157-34-157" id="aY"/><g id="C"><use transform="matrix(0.05555555555555555,0,0,0.05555555555555555,0,0)" xlink:href="#aM"/><use transform="matrix(0.05555555555555555,0,0,0.05555555555555555,15.555555555555555,0)" xlink:href="#aY"/><use transform="matrix(0.05555555555555555,0,0,0.05555555555555555,27.72222222222222,0)" xlink:href="#aA"/><use transform="matrix(0.05555555555555555,0,0,0.05555555555555555,38.83333333333333,0)" xlink:href="#aD"/></g><path fill="#fff" d="M182-130c37 4 62 22 62 59C244 23 116-4 24 0v-248c84 5 203-23 205 63 0 31-19 50-47 55zM76-148c40-3 101 13 101-30 0-44-60-28-101-31v61zm0 110c48-3 116 14 116-37 0-48-69-32-116-35v72" id="aZ"/><path fill="#fff" d="M140-251c80 0 125 45 125 126S219 4 139 4C58 4 15-44 15-125s44-126 125-126zm-1 214c52 0 73-35 73-88 0-50-21-86-72-86-52 0-73 35-73 86s22 88 72 88" id="ba"/><path fill="#fff" d="M24-248c120-7 223 5 221 122C244-46 201 0 124 0H24v-248zM76-40c74 7 117-18 117-86 0-67-45-88-117-82v168" id="bb"/><path fill="#fff" d="M146-102V0H94v-102L6-248h54l60 105 60-105h54" id="bc"/><g id="D"><use transform="matrix(0.05555555555555555,0,0,0.05555555555555555,0,0)" xlink:href="#aZ"/><use transform="matrix(0.05555555555555555,0,0,0.05555555555555555,14.388888888888888,0)" xlink:href="#ba"/><use transform="matrix(0.05555555555555555,0,0,0.05555555555555555,29.944444444444443,0)" xlink:href="#bb"/><use transform="matrix(0.05555555555555555,0,0,0.05555555555555555,44.33333333333333,0)" xlink:href="#bc"/></g><g id="E"><use transform="matrix(0.05555555555555555,0,0,0.05555555555555555,0,0)" xlink:href="#aV"/><use transform="matrix(0.05555555555555555,0,0,0.05555555555555555,6.611111111111111,0)" xlink:href="#aC"/><use transform="matrix(0.05555555555555555,0,0,0.05555555555555555,12.166666666666666,0)" xlink:href="#aD"/><use transform="matrix(0.05555555555555555,0,0,0.05555555555555555,24.333333333333332,0)" xlink:href="#aC"/><use transform="matrix(0.05555555555555555,0,0,0.05555555555555555,29.888888888888886,0)" xlink:href="#aE"/><use transform="matrix(0.05555555555555555,0,0,0.05555555555555555,41,0)" xlink:href="#aY"/><use transform="matrix(0.05555555555555555,0,0,0.05555555555555555,53.166666666666664,0)" xlink:href="#aA"/><use transform="matrix(0.05555555555555555,0,0,0.05555555555555555,64.27777777777777,0)" xlink:href="#aE"/></g><linearGradient gradientUnits="userSpaceOnUse" id="F" x1="60" y1="527.4" x2="299.85" y2="325.8"><stop offset="2.52%" stop-color="#3c8aa0" stop-opacity=".7"/><stop offset="57.42%" stop-color="#3a6d8c" stop-opacity=".94"/><stop offset="100%" stop-color="#255994" stop-opacity=".8"/></linearGradient><path fill="#fff" d="M24 0v-248h52V0H24" id="bd"/><g id="G"><use transform="matrix(0.05555555555555555,0,0,0.05555555555555555,0,0)" xlink:href="#bd"/><use transform="matrix(0.05555555555555555,0,0,0.05555555555555555,5.555555555555555,0)" xlink:href="#aW"/><use transform="matrix(0.05555555555555555,0,0,0.05555555555555555,23.333333333333336,0)" xlink:href="#az"/></g><g id="H"><use transform="matrix(0.05555555555555555,0,0,0.05555555555555555,0,0)" xlink:href="#aK"/><use transform="matrix(0.05555555555555555,0,0,0.05555555555555555,6.611111111111111,0)" xlink:href="#ay"/><use transform="matrix(0.05555555555555555,0,0,0.05555555555555555,17.72222222222222,0)" xlink:href="#az"/></g><g id="I"><use transform="matrix(0.05555555555555555,0,0,0.05555555555555555,0,0)" xlink:href="#aC"/><use transform="matrix(0.05555555555555555,0,0,0.05555555555555555,5.555555555555555,0)" xlink:href="#aE"/></g><g id="J"><use transform="matrix(0.05555555555555555,0,0,0.05555555555555555,0,0)" xlink:href="#aH"/><use transform="matrix(0.05555555555555555,0,0,0.05555555555555555,12.166666666666666,0)" xlink:href="#aG"/><use transform="matrix(0.05555555555555555,0,0,0.05555555555555555,24.333333333333332,0)" xlink:href="#aM"/><use transform="matrix(0.05555555555555555,0,0,0.05555555555555555,39.888888888888886,0)" xlink:href="#aD"/><use transform="matrix(0.05555555555555555,0,0,0.05555555555555555,52.05555555555555,0)" xlink:href="#aF"/><use transform="matrix(0.05555555555555555,0,0,0.05555555555555555,57.61111111111111,0)" xlink:href="#aG"/><use transform="matrix(0.05555555555555555,0,0,0.05555555555555555,69.77777777777777,0)" xlink:href="#ay"/><use transform="matrix(0.05555555555555555,0,0,0.05555555555555555,80.88888888888889,0)" xlink:href="#aH"/><use transform="matrix(0.05555555555555555,0,0,0.05555555555555555,93.05555555555556,0)" xlink:href="#aA"/><use transform="matrix(0.05555555555555555,0,0,0.05555555555555555,104.16666666666667,0)" xlink:href="#aH"/><use transform="matrix(0.05555555555555555,0,0,0.05555555555555555,116.33333333333336,0)" xlink:href="#aI"/></g><linearGradient gradientUnits="userSpaceOnUse" id="K" x1="340" y1="527.4" x2="579.85" y2="325.8"><stop offset="2.52%" stop-color="#3c8aa0" stop-opacity=".7"/><stop offset="57.42%" stop-color="#3a6d8c" stop-opacity=".94"/><stop offset="100%" stop-color="#255994" stop-opacity=".8"/></linearGradient><g id="L"><use transform="matrix(0.05555555555555555,0,0,0.05555555555555555,0,0)" xlink:href="#ba"/><use transform="matrix(0.05555555555555555,0,0,0.05555555555555555,15.555555555555555,0)" xlink:href="#aD"/><use transform="matrix(0.05555555555555555,0,0,0.05555555555555555,27.72222222222222,0)" xlink:href="#aO"/><use transform="matrix(0.05555555555555555,0,0,0.05555555555555555,38.83333333333333,0)" xlink:href="#aA"/></g><g id="M"><use transform="matrix(0.05555555555555555,0,0,0.05555555555555555,0,0)" xlink:href="#aK"/><use transform="matrix(0.05555555555555555,0,0,0.05555555555555555,6.611111111111111,0)" xlink:href="#aY"/><use transform="matrix(0.05555555555555555,0,0,0.05555555555555555,18.77777777777778,0)" xlink:href="#aA"/></g><path fill="#fff" d="M123 10C108 53 80 86 19 72V37c35 8 53-11 59-39L3-190h52l48 148c12-52 28-100 44-148h51" id="be"/><g id="N"><use transform="matrix(0.05555555555555555,0,0,0.05555555555555555,0,0)" xlink:href="#aB"/><use transform="matrix(0.05555555555555555,0,0,0.05555555555555555,12.166666666666666,0)" xlink:href="#aG"/><use transform="matrix(0.05555555555555555,0,0,0.05555555555555555,24.333333333333332,0)" xlink:href="#aH"/><use transform="matrix(0.05555555555555555,0,0,0.05555555555555555,36.5,0)" xlink:href="#be"/></g><g id="O"><use transform="matrix(0.05555555555555555,0,0,0.05555555555555555,0,0)" xlink:href="#aY"/><use transform="matrix(0.05555555555555555,0,0,0.05555555555555555,12.166666666666666,0)" xlink:href="#ay"/><use transform="matrix(0.05555555555555555,0,0,0.05555555555555555,23.27777777777778,0)" xlink:href="#aE"/></g><g id="P"><use transform="matrix(0.05555555555555555,0,0,0.05555555555555555,0,0)" xlink:href="#aO"/><use transform="matrix(0.05555555555555555,0,0,0.05555555555555555,11.11111111111111,0)" xlink:href="#aG"/><use transform="matrix(0.05555555555555555,0,0,0.05555555555555555,23.27777777777778,0)" xlink:href="#aW"/><use transform="matrix(0.05555555555555555,0,0,0.05555555555555555,41.05555555555556,0)" xlink:href="#aP"/><use transform="matrix(0.05555555555555555,0,0,0.05555555555555555,53.22222222222222,0)" xlink:href="#aF"/><use transform="matrix(0.05555555555555555,0,0,0.05555555555555555,58.77777777777777,0)" xlink:href="#aA"/><use transform="matrix(0.05555555555555555,0,0,0.05555555555555555,69.88888888888889,0)" xlink:href="#aK"/><use transform="matrix(0.05555555555555555,0,0,0.05555555555555555,76.5,0)" xlink:href="#aA"/><use transform="matrix(0.05555555555555555,0,0,0.05555555555555555,87.61111111111111,0)" xlink:href="#aH"/></g><path fill="#fff" d="M76-54c-1 42 2 86-19 110H24C36 42 46 24 48 0H25v-54h51" id="bf"/><g id="Q"><use transform="matrix(0.05555555555555555,0,0,0.05555555555555555,0,0)" xlink:href="#aF"/><use transform="matrix(0.05555555555555555,0,0,0.05555555555555555,5.555555555555555,0)" xlink:href="#aG"/><use transform="matrix(0.05555555555555555,0,0,0.05555555555555555,17.72222222222222,0)" xlink:href="#ay"/><use transform="matrix(0.05555555555555555,0,0,0.05555555555555555,28.833333333333332,0)" xlink:href="#aH"/><use transform="matrix(0.05555555555555555,0,0,0.05555555555555555,41,0)" xlink:href="#aC"/><use transform="matrix(0.05555555555555555,0,0,0.05555555555555555,46.55555555555556,0)" xlink:href="#aD"/><use transform="matrix(0.05555555555555555,0,0,0.05555555555555555,58.72222222222222,0)" xlink:href="#az"/><use transform="matrix(0.05555555555555555,0,0,0.05555555555555555,70.88888888888889,0)" xlink:href="#bf"/></g><g id="R"><use transform="matrix(0.05555555555555555,0,0,0.05555555555555555,0,0)" xlink:href="#aO"/><use transform="matrix(0.05555555555555555,0,0,0.05555555555555555,11.11111111111111,0)" xlink:href="#aG"/><use transform="matrix(0.05555555555555555,0,0,0.05555555555555555,23.27777777777778,0)" xlink:href="#aF"/><use transform="matrix(0.05555555555555555,0,0,0.05555555555555555,28.83333333333334,0)" xlink:href="#aF"/><use transform="matrix(0.05555555555555555,0,0,0.05555555555555555,34.38888888888889,0)" xlink:href="#aA"/><use transform="matrix(0.05555555555555555,0,0,0.05555555555555555,45.5,0)" xlink:href="#aO"/><use transform="matrix(0.05555555555555555,0,0,0.05555555555555555,56.611111111111114,0)" xlink:href="#aK"/><use transform="matrix(0.05555555555555555,0,0,0.05555555555555555,63.22222222222223,0)" xlink:href="#aG"/><use transform="matrix(0.05555555555555555,0,0,0.05555555555555555,75.3888888888889,0)" xlink:href="#aL"/><use transform="matrix(0.05555555555555555,0,0,0.05555555555555555,83.16666666666667,0)" xlink:href="#aE"/></g><g id="S"><use transform="matrix(0.05555555555555555,0,0,0.05555555555555555,0,0)" xlink:href="#aE"/><use transform="matrix(0.05555555555555555,0,0,0.05555555555555555,11.11111111111111,0)" xlink:href="#aK"/><use transform="matrix(0.05555555555555555,0,0,0.05555555555555555,17.72222222222222,0)" xlink:href="#ay"/><use transform="matrix(0.05555555555555555,0,0,0.05555555555555555,28.833333333333332,0)" xlink:href="#aL"/><use transform="matrix(0.05555555555555555,0,0,0.05555555555555555,36.61111111111111,0)" xlink:href="#aK"/></g><g id="T"><use transform="matrix(0.05555555555555555,0,0,0.05555555555555555,0,0)" xlink:href="#aL"/><use transform="matrix(0.05555555555555555,0,0,0.05555555555555555,7.777777777777778,0)" xlink:href="#aR"/><use transform="matrix(0.05555555555555555,0,0,0.05555555555555555,19.944444444444443,0)" xlink:href="#aD"/><use transform="matrix(0.05555555555555555,0,0,0.05555555555555555,32.11111111111111,0)" xlink:href="#aD"/><use transform="matrix(0.05555555555555555,0,0,0.05555555555555555,44.27777777777777,0)" xlink:href="#aC"/><use transform="matrix(0.05555555555555555,0,0,0.05555555555555555,49.83333333333333,0)" xlink:href="#aD"/><use transform="matrix(0.05555555555555555,0,0,0.05555555555555555,62,0)" xlink:href="#az"/><use transform="matrix(0.05555555555555555,0,0,0.05555555555555555,74.16666666666666,0)" xlink:href="#aI"/></g><linearGradient gradientUnits="userSpaceOnUse" id="U" x1="620" y1="527.4" x2="859.85" y2="325.8"><stop offset="2.52%" stop-color="#3c8aa0" stop-opacity=".7"/><stop offset="57.42%" stop-color="#3a6d8c" stop-opacity=".94"/><stop offset="100%" stop-color="#255994" stop-opacity=".8"/></linearGradient><path fill="#fff" d="M275 0h-61l-44-196L126 0H64L0-248h53L97-49l45-199h58l43 199 44-199h52" id="bg"/><g id="V"><use transform="matrix(0.05555555555555555,0,0,0.05555555555555555,0,0)" xlink:href="#bg"/><use transform="matrix(0.05555555555555555,0,0,0.05555555555555555,18.833333333333332,0)" xlink:href="#aY"/><use transform="matrix(0.05555555555555555,0,0,0.05555555555555555,31,0)" xlink:href="#aA"/><use transform="matrix(0.05555555555555555,0,0,0.05555555555555555,42.111111111111114,0)" xlink:href="#aD"/></g><g id="W"><use transform="matrix(0.05555555555555555,0,0,0.05555555555555555,0,0)" xlink:href="#aO"/><use transform="matrix(0.05555555555555555,0,0,0.05555555555555555,11.11111111111111,0)" xlink:href="#aG"/><use transform="matrix(0.05555555555555555,0,0,0.05555555555555555,23.27777777777778,0)" xlink:href="#aF"/><use transform="matrix(0.05555555555555555,0,0,0.05555555555555555,28.83333333333334,0)" xlink:href="#aF"/><use transform="matrix(0.05555555555555555,0,0,0.05555555555555555,34.38888888888889,0)" xlink:href="#aA"/><use transform="matrix(0.05555555555555555,0,0,0.05555555555555555,45.5,0)" xlink:href="#aO"/><use transform="matrix(0.05555555555555555,0,0,0.05555555555555555,56.611111111111114,0)" xlink:href="#aK"/><use transform="matrix(0.05555555555555555,0,0,0.05555555555555555,63.22222222222223,0)" xlink:href="#aG"/><use transform="matrix(0.05555555555555555,0,0,0.05555555555555555,75.3888888888889,0)" xlink:href="#aL"/><use transform="matrix(0.05555555555555555,0,0,0.05555555555555555,83.16666666666667,0)" xlink:href="#aE"/></g><g id="X"><use transform="matrix(0.05555555555555555,0,0,0.05555555555555555,0,0)" xlink:href="#aO"/><use transform="matrix(0.05555555555555555,0,0,0.05555555555555555,11.11111111111111,0)" xlink:href="#aG"/><use transform="matrix(0.05555555555555555,0,0,0.05555555555555555,23.27777777777778,0)" xlink:href="#aW"/><use transform="matrix(0.05555555555555555,0,0,0.05555555555555555,41.05555555555556,0)" xlink:href="#aP"/><use transform="matrix(0.05555555555555555,0,0,0.05555555555555555,53.22222222222222,0)" xlink:href="#aF"/><use transform="matrix(0.05555555555555555,0,0,0.05555555555555555,58.77777777777777,0)" xlink:href="#aA"/><use transform="matrix(0.05555555555555555,0,0,0.05555555555555555,69.88888888888889,0)" xlink:href="#aK"/><use transform="matrix(0.05555555555555555,0,0,0.05555555555555555,76.5,0)" xlink:href="#aA"/><use transform="matrix(0.05555555555555555,0,0,0.05555555555555555,87.61111111111111,0)" xlink:href="#bf"/></g><g id="Y"><use transform="matrix(0.05555555555555555,0,0,0.05555555555555555,0,0)" xlink:href="#ay"/><use transform="matrix(0.05555555555555555,0,0,0.05555555555555555,11.11111111111111,0)" xlink:href="#aD"/></g><g id="Z"><use transform="matrix(0.05555555555555555,0,0,0.05555555555555555,0,0)" xlink:href="#aG"/><use transform="matrix(0.05555555555555555,0,0,0.05555555555555555,12.166666666666666,0)" xlink:href="#aP"/><use transform="matrix(0.05555555555555555,0,0,0.05555555555555555,24.333333333333332,0)" xlink:href="#aK"/><use transform="matrix(0.05555555555555555,0,0,0.05555555555555555,30.944444444444443,0)" xlink:href="#aC"/><use transform="matrix(0.05555555555555555,0,0,0.05555555555555555,36.5,0)" xlink:href="#aG"/><use transform="matrix(0.05555555555555555,0,0,0.05555555555555555,48.666666666666664,0)" xlink:href="#aD"/><use transform="matrix(0.05555555555555555,0,0,0.05555555555555555,60.83333333333333,0)" xlink:href="#ay"/><use transform="matrix(0.05555555555555555,0,0,0.05555555555555555,71.94444444444444,0)" xlink:href="#aF"/></g><path fill="#fff" d="M147 0L96-86 75-71V0H25v-261h50v150l67-79h53l-66 74L201 0h-54" id="bh"/><g id="aa"><use transform="matrix(0.05555555555555555,0,0,0.05555555555555555,0,0)" xlink:href="#aO"/><use transform="matrix(0.05555555555555555,0,0,0.05555555555555555,11.11111111111111,0)" xlink:href="#ay"/><use transform="matrix(0.05555555555555555,0,0,0.05555555555555555,22.22222222222222,0)" xlink:href="#aF"/><use transform="matrix(0.05555555555555555,0,0,0.05555555555555555,27.77777777777778,0)" xlink:href="#aF"/><use transform="matrix(0.05555555555555555,0,0,0.05555555555555555,33.333333333333336,0)" xlink:href="#aB"/><use transform="matrix(0.05555555555555555,0,0,0.05555555555555555,45.5,0)" xlink:href="#ay"/><use transform="matrix(0.05555555555555555,0,0,0.05555555555555555,56.611111111111114,0)" xlink:href="#aO"/><use transform="matrix(0.05555555555555555,0,0,0.05555555555555555,67.72222222222223,0)" xlink:href="#bh"/></g><g id="ab"><use transform="matrix(0.05555555555555555,0,0,0.05555555555555555,0,0)" xlink:href="#aC"/><use transform="matrix(0.05555555555555555,0,0,0.05555555555555555,5.555555555555555,0)" xlink:href="#aE"/></g><g id="ac"><use transform="matrix(0.05555555555555555,0,0,0.05555555555555555,0,0)" xlink:href="#aO"/><use transform="matrix(0.05555555555555555,0,0,0.05555555555555555,11.11111111111111,0)" xlink:href="#ay"/><use transform="matrix(0.05555555555555555,0,0,0.05555555555555555,22.22222222222222,0)" xlink:href="#aF"/><use transform="matrix(0.05555555555555555,0,0,0.05555555555555555,27.77777777777778,0)" xlink:href="#aF"/><use transform="matrix(0.05555555555555555,0,0,0.05555555555555555,33.333333333333336,0)" xlink:href="#aA"/><use transform="matrix(0.05555555555555555,0,0,0.05555555555555555,44.44444444444444,0)" xlink:href="#aH"/></g><g id="ad"><use transform="matrix(0.05555555555555555,0,0,0.05555555555555555,0,0)" xlink:href="#aF"/><use transform="matrix(0.05555555555555555,0,0,0.05555555555555555,5.555555555555555,0)" xlink:href="#aA"/><use transform="matrix(0.05555555555555555,0,0,0.05555555555555555,16.666666666666664,0)" xlink:href="#aK"/></g><g id="ae"><use transform="matrix(0.05555555555555555,0,0,0.05555555555555555,0,0)" xlink:href="#aP"/><use transform="matrix(0.05555555555555555,0,0,0.05555555555555555,12.166666666666666,0)" xlink:href="#ay"/><use transform="matrix(0.05555555555555555,0,0,0.05555555555555555,23.27777777777778,0)" xlink:href="#az"/><use transform="matrix(0.05555555555555555,0,0,0.05555555555555555,35.44444444444444,0)" xlink:href="#aA"/></g><g id="af"><use transform="matrix(0.05555555555555555,0,0,0.05555555555555555,0,0)" xlink:href="#bh"/><use transform="matrix(0.05555555555555555,0,0,0.05555555555555555,11.11111111111111,0)" xlink:href="#aD"/><use transform="matrix(0.05555555555555555,0,0,0.05555555555555555,23.27777777777778,0)" xlink:href="#aG"/><use transform="matrix(0.05555555555555555,0,0,0.05555555555555555,35.44444444444444,0)" xlink:href="#aM"/></g><g id="ag"><use transform="matrix(0.05555555555555555,0,0,0.05555555555555555,0,0)" xlink:href="#aM"/><use transform="matrix(0.05555555555555555,0,0,0.05555555555555555,15.555555555555555,0)" xlink:href="#aA"/></g><g id="ah"><use transform="matrix(0.05555555555555555,0,0,0.05555555555555555,0,0)" xlink:href="#aH"/><use transform="matrix(0.05555555555555555,0,0,0.05555555555555555,12.166666666666666,0)" xlink:href="#aG"/><use transform="matrix(0.05555555555555555,0,0,0.05555555555555555,24.333333333333332,0)" xlink:href="#aD"/><use transform="matrix(0.05555555555555555,0,0,0.05555555555555555,36.5,0)" xlink:href="#aA"/><use transform="matrix(0.05555555555555555,0,0,0.05555555555555555,47.611111111111114,0)" xlink:href="#aI"/></g><linearGradient gradientUnits="userSpaceOnUse" id="ai" x1="900" y1="527.4" x2="1139.85" y2="325.8"><stop offset="2.52%" stop-color="#3c8aa0" stop-opacity=".7"/><stop offset="57.42%" stop-color="#3a6d8c" stop-opacity=".94"/><stop offset="100%" stop-color="#255994" stop-opacity=".8"/></linearGradient><path fill="#fff" d="M230 0l2-204L168 0h-37L68-204 70 0H24v-248h70l56 185 57-185h69V0h-46" id="bi"/><g id="aj"><use transform="matrix(0.05555555555555555,0,0,0.05555555555555555,0,0)" xlink:href="#bi"/><use transform="matrix(0.05555555555555555,0,0,0.05555555555555555,16.61111111111111,0)" xlink:href="#aA"/><use transform="matrix(0.05555555555555555,0,0,0.05555555555555555,27.72222222222222,0)" xlink:href="#aL"/><use transform="matrix(0.05555555555555555,0,0,0.05555555555555555,35.5,0)" xlink:href="#aO"/><use transform="matrix(0.05555555555555555,0,0,0.05555555555555555,46.611111111111114,0)" xlink:href="#aY"/><use transform="matrix(0.05555555555555555,0,0,0.05555555555555555,58.77777777777777,0)" xlink:href="#ay"/><use transform="matrix(0.05555555555555555,0,0,0.05555555555555555,69.88888888888889,0)" xlink:href="#aD"/><use transform="matrix(0.05555555555555555,0,0,0.05555555555555555,82.05555555555556,0)" xlink:href="#aK"/></g><g id="ak"><use transform="matrix(0.05555555555555555,0,0,0.05555555555555555,0,0)" xlink:href="#aP"/><use transform="matrix(0.05555555555555555,0,0,0.05555555555555555,12.166666666666666,0)" xlink:href="#aG"/><use transform="matrix(0.05555555555555555,0,0,0.05555555555555555,24.333333333333332,0)" xlink:href="#aE"/><use transform="matrix(0.05555555555555555,0,0,0.05555555555555555,35.44444444444444,0)" xlink:href="#aK"/></g><g id="al"><use transform="matrix(0.05555555555555555,0,0,0.05555555555555555,0,0)" xlink:href="#aK"/><use transform="matrix(0.05555555555555555,0,0,0.05555555555555555,6.611111111111111,0)" xlink:href="#aY"/><use transform="matrix(0.05555555555555555,0,0,0.05555555555555555,18.77777777777778,0)" xlink:href="#aA"/><use transform="matrix(0.05555555555555555,0,0,0.05555555555555555,29.888888888888886,0)" xlink:href="#aC"/><use transform="matrix(0.05555555555555555,0,0,0.05555555555555555,35.44444444444444,0)" xlink:href="#aL"/></g><g id="am"><use transform="matrix(0.05555555555555555,0,0,0.05555555555555555,0,0)" xlink:href="#aV"/><use transform="matrix(0.05555555555555555,0,0,0.05555555555555555,6.611111111111111,0)" xlink:href="#aG"/><use transform="matrix(0.05555555555555555,0,0,0.05555555555555555,18.77777777777778,0)" xlink:href="#aL"/><use transform="matrix(0.05555555555555555,0,0,0.05555555555555555,26.555555555555557,0)" xlink:href="#aW"/></g><g id="an"><use transform="matrix(0.05555555555555555,0,0,0.05555555555555555,0,0)" xlink:href="#aK"/><use transform="matrix(0.05555555555555555,0,0,0.05555555555555555,6.611111111111111,0)" xlink:href="#aG"/></g><g id="ao"><use transform="matrix(0.05555555555555555,0,0,0.05555555555555555,0,0)" xlink:href="#aK"/><use transform="matrix(0.05555555555555555,0,0,0.05555555555555555,6.611111111111111,0)" xlink:href="#aY"/><use transform="matrix(0.05555555555555555,0,0,0.05555555555555555,18.77777777777778,0)" xlink:href="#aA"/><use transform="matrix(0.05555555555555555,0,0,0.05555555555555555,29.888888888888886,0)" xlink:href="#aC"/><use transform="matrix(0.05555555555555555,0,0,0.05555555555555555,35.44444444444444,0)" xlink:href="#aL"/></g><g id="ap"><use transform="matrix(0.05555555555555555,0,0,0.05555555555555555,0,0)" xlink:href="#aE"/><use transform="matrix(0.05555555555555555,0,0,0.05555555555555555,11.11111111111111,0)" xlink:href="#aC"/><use transform="matrix(0.05555555555555555,0,0,0.05555555555555555,16.666666666666664,0)" xlink:href="#aK"/><use transform="matrix(0.05555555555555555,0,0,0.05555555555555555,23.277777777777775,0)" xlink:href="#aA"/></g><g id="aq"><use transform="matrix(0.05555555555555555,0,0,0.05555555555555555,0,0)" xlink:href="#aM"/><use transform="matrix(0.05555555555555555,0,0,0.05555555555555555,15.555555555555555,0)" xlink:href="#aC"/><use transform="matrix(0.05555555555555555,0,0,0.05555555555555555,21.11111111111111,0)" xlink:href="#aK"/><use transform="matrix(0.05555555555555555,0,0,0.05555555555555555,27.72222222222222,0)" xlink:href="#aY"/></g><path fill="#fff" d="M-4 44V30h207v14H-4" id="bj"/><g id="ar"><use transform="matrix(0.05555555555555555,0,0,0.05555555555555555,0,0)" xlink:href="#aE"/><use transform="matrix(0.05555555555555555,0,0,0.05555555555555555,11.11111111111111,0)" xlink:href="#aA"/><use transform="matrix(0.05555555555555555,0,0,0.05555555555555555,22.22222222222222,0)" xlink:href="#aE"/><use transform="matrix(0.05555555555555555,0,0,0.05555555555555555,33.33333333333333,0)" xlink:href="#aE"/><use transform="matrix(0.05555555555555555,0,0,0.05555555555555555,44.44444444444444,0)" xlink:href="#aC"/><use transform="matrix(0.05555555555555555,0,0,0.05555555555555555,50,0)" xlink:href="#aG"/><use transform="matrix(0.05555555555555555,0,0,0.05555555555555555,62.166666666666664,0)" xlink:href="#aD"/><use transform="matrix(0.05555555555555555,0,0,0.05555555555555555,74.33333333333333,0)" xlink:href="#bj"/><use transform="matrix(0.05555555555555555,0,0,0.05555555555555555,85.44444444444444,0)" xlink:href="#aC"/><use transform="matrix(0.05555555555555555,0,0,0.05555555555555555,91,0)" xlink:href="#aH"/></g><g id="as"><use transform="matrix(0.05555555555555555,0,0,0.05555555555555555,0,0)" xlink:href="#aQ"/><use transform="matrix(0.05555555555555555,0,0,0.05555555555555555,6.611111111111111,0)" xlink:href="#aR"/><use transform="matrix(0.05555555555555555,0,0,0.05555555555555555,18.77777777777778,0)" xlink:href="#aD"/><use transform="matrix(0.05555555555555555,0,0,0.05555555555555555,30.944444444444443,0)" xlink:href="#aF"/><use transform="matrix(0.05555555555555555,0,0,0.05555555555555555,36.5,0)" xlink:href="#aA"/><use transform="matrix(0.05555555555555555,0,0,0.05555555555555555,47.611111111111114,0)" xlink:href="#aE"/><use transform="matrix(0.05555555555555555,0,0,0.05555555555555555,58.72222222222223,0)" xlink:href="#aE"/></g><g id="at"><use transform="matrix(0.05555555555555555,0,0,0.05555555555555555,0,0)" xlink:href="#aE"/><use transform="matrix(0.05555555555555555,0,0,0.05555555555555555,11.11111111111111,0)" xlink:href="#aA"/><use transform="matrix(0.05555555555555555,0,0,0.05555555555555555,22.22222222222222,0)" xlink:href="#aL"/><use transform="matrix(0.05555555555555555,0,0,0.05555555555555555,30,0)" xlink:href="#aU"/><use transform="matrix(0.05555555555555555,0,0,0.05555555555555555,41.111111111111114,0)" xlink:href="#aA"/><use transform="matrix(0.05555555555555555,0,0,0.05555555555555555,52.22222222222223,0)" xlink:href="#aL"/></g><g id="au"><use transform="matrix(0.05555555555555555,0,0,0.05555555555555555,0,0)" xlink:href="#ay"/><use transform="matrix(0.05555555555555555,0,0,0.05555555555555555,11.11111111111111,0)" xlink:href="#aF"/><use transform="matrix(0.05555555555555555,0,0,0.05555555555555555,16.666666666666664,0)" xlink:href="#aL"/><use transform="matrix(0.05555555555555555,0,0,0.05555555555555555,24.444444444444443,0)" xlink:href="#aA"/><use transform="matrix(0.05555555555555555,0,0,0.05555555555555555,35.55555555555556,0)" xlink:href="#ay"/><use transform="matrix(0.05555555555555555,0,0,0.05555555555555555,46.66666666666667,0)" xlink:href="#aH"/><use transform="matrix(0.05555555555555555,0,0,0.05555555555555555,58.83333333333333,0)" xlink:href="#be"/></g><g id="av"><use transform="matrix(0.05555555555555555,0,0,0.05555555555555555,0,0)" xlink:href="#aY"/><use transform="matrix(0.05555555555555555,0,0,0.05555555555555555,12.166666666666666,0)" xlink:href="#ay"/><use transform="matrix(0.05555555555555555,0,0,0.05555555555555555,23.27777777777778,0)" xlink:href="#aE"/></g><g id="aw"><use transform="matrix(0.05555555555555555,0,0,0.05555555555555555,0,0)" xlink:href="#aC"/><use transform="matrix(0.05555555555555555,0,0,0.05555555555555555,5.555555555555555,0)" xlink:href="#aK"/><use transform="matrix(0.05555555555555555,0,0,0.05555555555555555,12.166666666666666,0)" xlink:href="#aS"/><use transform="matrix(0.05555555555555555,0,0,0.05555555555555555,18.77777777777778,0)" xlink:href="#aI"/></g></defs></g></svg>