<svg xmlns="http://www.w3.org/2000/svg" viewBox="0 0 550.91 54.16"><defs><style>.cls-1{fill:none;stroke:gray;stroke-miterlimit:10;stroke-width:0.25px;}</style></defs><title>techspechero</title><g id="Layer_2" data-name="Layer 2"><g id="Layer_1-2" data-name="Layer 1"><path class="cls-1" d="M13.25,14.3H1.74V10.2H29.61v4.1H18.1v34H13.25Z" transform="translate(-1.61 -6.12)"/><path class="cls-1" d="M30.05,34.21c0-9.18,6.18-14.83,12.67-14.83C49.91,19.38,54,24.54,54,32.61a15,15,0,0,1-.22,2.71h-19c.34,6,4,9.84,9.37,9.84a12.33,12.33,0,0,0,7-2.25L52.85,46A16.61,16.61,0,0,1,43.54,49C36,49,30.05,43.47,30.05,34.21ZM49.76,31.9c0-5.65-2.54-8.72-6.95-8.72-4,0-7.51,3.18-8.09,8.72Z" transform="translate(-1.61 -6.12)"/><path class="cls-1" d="M58.81,34.21c0-9.41,6.36-14.83,13.57-14.83a11.83,11.83,0,0,1,8.25,3.31l-2.44,3.15a8.2,8.2,0,0,0-5.6-2.49c-5.1,0-8.85,4.39-8.85,10.86S67.28,45,72.46,45a10.12,10.12,0,0,0,6.62-2.81l2.07,3.2A13.68,13.68,0,0,1,72,49C64.53,49,58.81,43.54,58.81,34.21Z" transform="translate(-1.61 -6.12)"/><path class="cls-1" d="M87.36,6.94h4.77V18.25L92,24c2.63-2.55,5.49-4.66,9.36-4.66,5.94,0,8.6,3.83,8.6,11V48.27h-4.77V31c0-5.25-1.58-7.5-5.32-7.5C97,23.52,95,25,92.13,27.85V48.27H87.36Z" transform="translate(-1.61 -6.12)"/><path class="cls-1" d="M118.91,20.07h3.94l.4,4.07h.16c2.69-2.65,5.59-4.76,9.46-4.76,5.94,0,8.61,3.83,8.61,11V48.27h-4.77V31c0-5.25-1.59-7.5-5.32-7.5-2.89,0-4.88,1.47-7.71,4.33V48.27h-4.77Z" transform="translate(-1.61 -6.12)"/><path class="cls-1" d="M149.76,11.2a3.3,3.3,0,0,1,6.59,0,3.3,3.3,0,0,1-6.59,0Zm.87,8.87h4.77v28.2h-4.77Z" transform="translate(-1.61 -6.12)"/><path class="cls-1" d="M162.81,34.21c0-9.41,6.35-14.83,13.56-14.83a11.83,11.83,0,0,1,8.25,3.31l-2.44,3.15a8.18,8.18,0,0,0-5.6-2.49c-5.1,0-8.84,4.39-8.84,10.86S171.27,45,176.46,45a10.16,10.16,0,0,0,6.62-2.81l2.06,3.2A13.68,13.68,0,0,1,176,49C168.53,49,162.81,43.54,162.81,34.21Z" transform="translate(-1.61 -6.12)"/><path class="cls-1" d="M189,41c0-6.15,5.3-9.22,17.32-10.52,0-3.63-1.22-7.12-5.82-7.12a15.53,15.53,0,0,0-8.41,3l-1.87-3.27a20.65,20.65,0,0,1,11.08-3.68c6.88,0,9.79,4.57,9.79,11.59v17.3h-3.94l-.41-3.38h-.15c-2.69,2.24-5.83,4.07-9.33,4.07C192.56,49,189,46,189,41Zm17.32.44V33.56c-9.45,1.13-12.64,3.45-12.64,7,0,3.2,2.17,4.51,4.94,4.51S203.61,43.79,206.34,41.39Z" transform="translate(-1.61 -6.12)"/><path class="cls-1" d="M220,42.6V6.94h4.77V43c0,1.46.64,2,1.33,2a4,4,0,0,0,1.05-.12l.64,3.65a7.71,7.71,0,0,1-2.74.44C221.47,49,220,46.68,220,42.6Z" transform="translate(-1.61 -6.12)"/><path class="cls-1" d="M244.08,43.31,247,40a14.9,14.9,0,0,0,10.51,4.71c5,0,7.95-2.49,7.95-6.18,0-3.89-2.75-5.13-6.35-6.7l-5.46-2.41c-3.55-1.52-7.71-4.2-7.71-9.8,0-5.82,5.06-10.11,12-10.11a15.73,15.73,0,0,1,11.21,4.72l-2.57,3.11a12.17,12.17,0,0,0-8.64-3.57c-4.27,0-7.1,2.16-7.1,5.56,0,3.67,3.32,5,6.31,6.3L262.52,28c4.41,1.89,7.84,4.51,7.84,10.17,0,6-5,10.82-13,10.82A18.23,18.23,0,0,1,244.08,43.31Z" transform="translate(-1.61 -6.12)"/><path class="cls-1" d="M277.36,20.07h3.94l.41,3.26h.16c2.54-2.12,5.72-3.95,9-3.95C298.14,19.38,302,25,302,33.74,302,43.35,296.26,49,289.82,49c-2.58,0-5.23-1.19-7.82-3.27l.13,4.93v9.54h-4.77ZM297.1,33.78c0-6.22-2.12-10.39-7.43-10.39-2.39,0-4.79,1.31-7.54,3.85V42A11,11,0,0,0,289,45C293.66,45,297.1,40.74,297.1,33.78Z" transform="translate(-1.61 -6.12)"/><path class="cls-1" d="M307.46,34.21c0-9.18,6.18-14.83,12.67-14.83,7.19,0,11.25,5.16,11.25,13.23a15,15,0,0,1-.22,2.71h-19c.34,6,4,9.84,9.37,9.84a12.33,12.33,0,0,0,7-2.25l1.7,3.13A16.6,16.6,0,0,1,321,49C313.44,49,307.46,43.47,307.46,34.21Zm19.71-2.31c0-5.65-2.55-8.72-6.95-8.72-4,0-7.51,3.18-8.09,8.72Z" transform="translate(-1.61 -6.12)"/><path class="cls-1" d="M336.22,34.21c0-9.41,6.36-14.83,13.57-14.83A11.83,11.83,0,0,1,358,22.69l-2.44,3.15a8.2,8.2,0,0,0-5.6-2.49c-5.1,0-8.85,4.39-8.85,10.86S344.69,45,349.87,45a10.12,10.12,0,0,0,6.62-2.81l2.07,3.2A13.68,13.68,0,0,1,349.45,49C342,49,336.22,43.54,336.22,34.21Z" transform="translate(-1.61 -6.12)"/><path class="cls-1" d="M363.89,11.2a3.3,3.3,0,0,1,6.59,0,3.3,3.3,0,0,1-6.59,0Zm.88,8.87h4.77v28.2h-4.77Z" transform="translate(-1.61 -6.12)"/><path class="cls-1" d="M376,20.35l4-.28h10.53V24H376Zm3.83-4.73c0-5.73,2.61-9.37,8.26-9.37a12.45,12.45,0,0,1,4.68,1l-1,3.64a7.78,7.78,0,0,0-3.19-.72c-2.66,0-4,1.86-4,5.5V48.27h-4.77Z" transform="translate(-1.61 -6.12)"/><path class="cls-1" d="M395.1,11.2a3.3,3.3,0,0,1,6.59,0,3.3,3.3,0,0,1-6.59,0Zm.87,8.87h4.77v28.2H396Z" transform="translate(-1.61 -6.12)"/><path class="cls-1" d="M408.14,34.21c0-9.41,6.36-14.83,13.57-14.83A11.78,11.78,0,0,1,430,22.69l-2.44,3.15a8.16,8.16,0,0,0-5.59-2.49c-5.11,0-8.85,4.39-8.85,10.86S416.61,45,421.79,45a10.14,10.14,0,0,0,6.62-2.81l2.07,3.2A13.69,13.69,0,0,1,421.36,49C413.86,49,408.14,43.54,408.14,34.21Z" transform="translate(-1.61 -6.12)"/><path class="cls-1" d="M434.36,41c0-6.15,5.3-9.22,17.31-10.52,0-3.63-1.21-7.12-5.82-7.12a15.5,15.5,0,0,0-8.4,3l-1.87-3.27a20.61,20.61,0,0,1,11.07-3.68c6.88,0,9.79,4.57,9.79,11.59v17.3H452.5l-.4-3.38h-.16c-2.69,2.24-5.82,4.07-9.32,4.07C437.9,49,434.36,46,434.36,41Zm17.31.44V33.56C442.23,34.69,439,37,439,40.61c0,3.2,2.18,4.51,4.94,4.51S448.94,43.79,451.67,41.39Z" transform="translate(-1.61 -6.12)"/><path class="cls-1" d="M465.36,39.55V24h-4.19V20.35l4.41-.28.57-7.9h4v7.9h7.64V24h-7.64V39.63c0,3.45,1.11,5.44,4.36,5.44a9.35,9.35,0,0,0,3.21-.75l.92,3.6a17.18,17.18,0,0,1-5.23,1C467.39,49,465.36,45.16,465.36,39.55Z" transform="translate(-1.61 -6.12)"/><path class="cls-1" d="M483.26,11.2a3.3,3.3,0,0,1,6.59,0,3.3,3.3,0,0,1-6.59,0Zm.87,8.87h4.77v28.2h-4.77Z" transform="translate(-1.61 -6.12)"/><path class="cls-1" d="M496.3,34.21c0-9.41,6.16-14.83,13.07-14.83s13.06,5.42,13.06,14.83S516.28,49,509.37,49,496.3,43.54,496.3,34.21Zm21.2,0c0-6.47-3.29-10.86-8.13-10.86s-8.14,4.39-8.14,10.86S504.52,45,509.37,45,517.5,40.67,517.5,34.21Z" transform="translate(-1.61 -6.12)"/><path class="cls-1" d="M529.83,20.07h3.94l.4,4.07h.16c2.69-2.65,5.59-4.76,9.46-4.76,5.94,0,8.61,3.83,8.61,11V48.27h-4.77V31c0-5.25-1.59-7.5-5.32-7.5-2.88,0-4.88,1.47-7.71,4.33V48.27h-4.77Z" transform="translate(-1.61 -6.12)"/></g></g></svg>